<?xml version="1.0" ?><!DOCTYPE svg  PUBLIC '-//W3C//DTD SVG 1.1//EN'  'http://www.w3.org/Graphics/SVG/1.1/DTD/svg11.dtd'><svg width="512px" height="512px" viewBox="0 0 512 512" style="enable-background:new 0 0 512 512;" version="1.1" xml:space="preserve" xmlns="http://www.w3.org/2000/svg" xmlns:xlink="http://www.w3.org/1999/xlink"><g id="B_-_160_x2C__Globe_x2C__Business_x2C__global_x2C__office_x2C__point_x2C__world"><g><path d="M315.678,351.896c5.578-19.787,8.813-42.407,9.175-66.512h-68.984v60.846    C275.746,346.41,295.709,348.3,315.678,351.896 M255.868,426.1c18.167-1.799,34.716-17.224,47.128-41.239    c3.959-7.87,7.558-16.594,10.616-26.083c-19.253-3.463-38.498-5.262-57.744-5.441V426.1z M191.022,358.823    c2.966,9.488,6.564,18.213,10.609,26.037c12.32,24.016,28.96,39.44,47.128,41.239v-72.764    C229.512,353.562,210.267,355.405,191.022,358.823z M179.774,285.385c0.27,24.104,3.598,46.77,9.175,66.603    c19.97-3.599,39.847-5.532,59.81-5.757v-60.846H179.774z M189.127,211.092c-5.755,19.966-9.083,42.813-9.354,67.143h68.985    v-61.387c-8.183-0.089-16.279-0.495-24.462-1.124C212.603,214.779,200.822,213.206,189.127,211.092z M248.759,137.519    c-18.167,1.799-34.808,17.224-47.128,41.239c-3.959,7.69-7.465,16.234-10.432,25.499c11.148,1.979,22.396,3.463,33.637,4.362    c7.913,0.629,15.918,0.989,23.923,1.079V137.519z M184.095,202.907c3.236-9.938,6.927-19.157,11.241-27.387    c7.828-15.336,17.451-27.478,28.244-35.302c-28.335,5.71-53.698,19.742-73.397,39.438c-3.683,3.688-7.196,7.556-10.432,11.603    C154.589,196.072,169.342,199.984,184.095,202.907z M172.671,278.234c0.269-24.735,3.597-48.03,9.445-68.492    c-15.654-3.103-31.302-7.285-46.95-12.502c-16.549,22.845-26.534,50.772-27.257,80.994H172.671z M181.931,353.336    c-5.663-20.326-8.991-43.442-9.26-67.951h-64.762c0.724,29.995,10.524,57.788,26.895,80.544    C150.544,360.711,166.191,356.484,181.931,353.336z M223.58,423.446c-10.793-7.87-20.416-19.967-28.244-35.347    c-4.314-8.41-8.182-17.765-11.332-27.928c-14.932,2.968-29.771,6.881-44.616,11.738c3.329,4.227,6.926,8.229,10.794,12.051    C169.881,403.659,195.244,417.689,223.58,423.446z M320.624,360.082c-3.237,10.208-7.012,19.607-11.333,28.018    c-7.913,15.38-17.535,27.477-28.329,35.347c28.421-5.757,53.783-19.787,73.482-39.485c3.776-3.822,7.374-7.824,10.794-12.051    C350.309,367.008,335.462,363.05,320.624,360.082z M331.956,285.385c-0.269,24.509-3.598,47.58-9.261,67.861    c15.648,3.148,31.388,7.376,47.035,12.683c16.372-22.801,26.264-50.549,26.988-80.544H331.956z M316.309,213.969l-2.342-2.518    c-19.338,3.417-38.76,5.172-58.099,5.396v61.387h68.984c-0.184-11.018-0.901-21.721-2.249-31.93    C321.163,234.926,319.005,224.087,316.309,213.969z M326.023,224.133c1.526,6.835,2.697,13.986,3.684,21.271    c1.349,10.613,2.157,21.631,2.249,32.83h64.763c-0.185-7.69-0.994-15.244-2.342-22.577c-1.171-6.79-2.967-13.491-5.125-19.967    l-2.163,2.159c-7.466,7.421-14.747,14.616-21.134,21.498c-1.256,1.438-3.505,1.483-4.946,0.18l-0.269-0.226    c-6.296-6.881-13.583-14.031-21.049-21.452C335.193,233.353,330.607,228.766,326.023,224.133z M272.233,142.96    c-3.058-1.708-6.11-3.103-9.261-4.003c-2.342-0.719-4.677-1.214-7.104-1.438v72.179c17.444-0.135,34.985-1.664,52.436-4.497    C291.485,185.998,277.18,165.266,272.233,142.96z M393.838,93.492c-7.735-7.825-18.529-12.637-30.401-12.637    c-11.873,0-22.666,4.813-30.487,12.592c-7.734,7.825-12.596,18.573-12.596,30.49c0,11.872,4.861,22.621,12.596,30.446    c7.821,7.78,18.614,12.592,30.487,12.592c11.78,0,22.487-4.767,30.224-12.413l0.178-0.224c7.826-7.78,12.589-18.529,12.589-30.401    C406.427,112.02,401.664,101.272,393.838,93.492z M363.437,73.75c13.76,0,26.356,5.622,35.439,14.705    c9.083,9.084,14.661,21.631,14.661,35.482c0,13.852-5.578,26.399-14.661,35.438l-0.185,0.224    c-9.084,8.95-21.581,14.481-35.255,14.481c-13.853,0-26.442-5.621-35.525-14.661c-9.083-9.129-14.661-21.676-14.661-35.482    c0-13.851,5.578-26.398,14.661-35.482C336.994,79.371,349.584,73.75,363.437,73.75z M105.126,389.853    c-2.881-3.777-8.544,0.54-5.761,4.272c1.44,1.934,2.88,3.868,4.406,5.756c1.171,1.484,3.42,1.709,4.953,0.631    c1.618-1.26,1.795-3.464,0.625-5.083C107.909,393.631,106.475,391.741,105.126,389.853z M90.373,366.197    c-2.697-4.451-8.452-0.269-6.294,3.328c1.079,2.069,2.25,4.363,3.414,6.342c2.519,4.182,8.544,0.36,6.209-3.553    C92.531,370.335,91.452,368.267,90.373,366.197z M79.402,340.563c-1.98-4.811-8.367-1.662-6.749,2.295    c0.724,2.203,1.533,4.722,2.428,6.79c1.802,4.497,8.366,1.709,6.656-2.519C80.843,345.106,80.026,342.634,79.402,340.563z     M72.476,313.492c-0.993-4.767-7.918-3.148-7.018,1.259c0.362,2.384,0.901,4.767,1.349,7.104c0.9,4.408,7.734,3.328,7.018-1.393    C73.377,318.124,72.838,315.83,72.476,313.492z M69.779,285.744c0-4.587-7.11-4.452-7.11,0.135c0,2.429,0.092,4.857,0.27,7.285    c0,0.676,0.269,1.17,0.539,1.664c1.71,2.924,6.571,1.89,6.571-2.114C69.865,290.422,69.779,288.038,69.779,285.744z     M71.213,257.862c0.901-4.048-6.024-6.072-7.011-0.944l-0.81,7.24c0,4.723,6.118,5.396,7.104,0.675L71.213,257.862z     M76.976,230.564c1.525-3.912-5.039-6.521-6.572-2.653c-0.085,0.179-0.178,0.45-0.269,0.674c-0.625,2.293-1.165,4.677-1.888,6.971    c-0.986,5.036,6.117,5.936,6.926,1.753C75.804,235.061,76.344,232.813,76.976,230.564z M123.563,421.107    c3.144,3.148,8.182-1.798,4.769-5.217c-1.71-1.573-3.328-3.192-5.039-4.857c-3.236-3.282-8.274,1.755-5.038,5.037    C120.057,417.78,121.761,419.443,123.563,421.107z M434.223,266.767c0,0.899,0.625,1.753,1.257,2.384    c2.61,1.979,5.847,0.449,5.847-2.969c-0.092-2.068-0.27-5.216-0.717-7.195c-1.078-5.307-7.826-3.104-7.018,0.81    C433.861,262.045,434.131,264.474,434.223,266.767z M434.4,294.693c0,5.263,7.104,4.587,7.104,0.449    c0.185-2.383,0.362-4.811,0.362-7.194c0-4.992-7.104-4.678-7.104-0.226C434.762,290.018,434.578,292.355,434.4,294.693z     M430.355,322.306c-0.901,4.768,6.117,5.936,7.012,1.529c0.453-2.338,0.993-4.722,1.439-7.06c0.363-1.755-0.717-3.419-2.064-3.914    c-2.342-0.944-4.5,0.405-4.946,2.608C431.342,317.72,430.895,320.013,430.355,322.306z M422.166,348.974    c-1.795,4.317,4.861,6.926,6.57,2.608c0.896-2.204,1.797-4.542,2.605-6.835c1.71-4.273-5.038-6.702-6.741-2.339    C423.699,344.431,422.975,346.859,422.166,348.974z M409.939,374.022c-2.435,4.002,3.774,7.511,6.116,3.598    c1.257-2.068,2.427-4.182,3.506-6.296c2.249-3.643-3.235-7.465-6.024-3.688C412.273,369.705,411.104,371.954,409.939,374.022z     M394.015,396.958c-3.058,4.003,2.881,8.005,5.485,4.498c1.533-1.89,3.059-3.778,4.5-5.713c2.788-3.731-2.875-8.004-5.664-4.271    C396.896,393.315,395.455,395.16,394.015,396.958z M374.77,417.195c-3.598,3.643,1.802,8.319,4.854,5.307    c1.711-1.664,3.42-3.328,5.223-4.992c3.414-3.373-1.71-8.364-4.952-5.082C378.189,414.047,376.479,415.666,374.77,417.195z     M352.734,434.33c-3.775,2.248-0.361,8.499,3.959,5.936c1.975-1.349,3.954-2.697,5.934-4.139c3.959-2.922-0.539-8.453-4.137-5.755    C356.603,431.721,354.715,433.025,352.734,434.33z M328.358,447.865c-4.138,1.619-1.618,8.32,2.968,6.477    c2.162-0.9,4.498-2.114,6.57-3.193c3.952-2.384,1.256-8.141-3.244-6.295C332.674,445.842,330.338,447.011,328.358,447.865z     M302.187,457.534c-4.583,1.799-2.696,7.734,1.98,6.835c2.249-0.674,4.584-1.349,6.926-2.112c4.854-1.935,1.618-8.32-2.249-6.792    C306.771,456.275,304.345,456.905,302.187,457.534z M274.844,463.021c-5.215,1.034-3.15,7.87,0.902,7.062    c2.334-0.271,4.762-0.63,7.104-0.989c4.945-0.99,3.236-7.915-1.171-7.062C279.43,462.436,277.094,462.751,274.844,463.021z     M246.963,464.325c-4.946,0-4.677,7.105-0.27,7.105c2.427,0,4.854,0.136,7.28,0.09c4.591,0,4.5-7.105-0.085-7.105    C251.547,464.46,249.298,464.325,246.963,464.325z M219.173,461.401c-4.499-0.899-5.94,6.071-1.263,7.016    c2.341,0.45,4.769,0.765,7.104,1.17c4.499,0.899,5.762-6.116,1.079-7.061C223.757,462.212,221.416,461.852,219.173,461.401z     M192.186,454.297c-1.888-0.766-3.868,0.539-4.493,2.113c-0.724,2.114,0.355,3.867,2.157,4.587    c2.335,0.765,4.585,1.574,6.927,2.294c3.867,1.528,6.564-5.036,2.604-6.61C197.132,455.826,194.436,455.061,192.186,454.297z     M166.646,443.098c-3.328-1.978-7.735,3.014-3.512,6.208c2.164,1.168,4.414,2.338,6.656,3.372    c4.861,1.979,6.841-4.901,3.059-6.432C170.783,445.258,168.711,444.223,166.646,443.098z M434.939,230.519    c-0.809-4.092-7.827-3.193-6.834,1.934l1.797,6.747c0.9,4.721,8.273,2.562,6.926-1.665    C436.203,235.196,435.664,232.857,434.939,230.519z M120.057,155.912c3.236-3.238-1.895-8.14-5.223-4.902l-4.854,5.352    c-3.059,3.103,1.888,8.14,5.124,4.902C116.814,159.509,118.348,157.666,120.057,155.912z M140.744,137.204    c3.414-2.474,0.085-8.32-4.23-5.667c-1.979,1.484-3.867,3.014-5.755,4.633c-3.513,3.463,0.895,8.185,4.584,5.441L140.744,137.204z     M164.126,121.914c4.23-2.609,0.27-8.5-3.506-6.251c-2.072,1.08-4.229,2.429-6.301,3.642c-3.953,2.384-0.355,8.545,3.782,6.072    C159.989,124.207,162.054,122.948,164.126,121.914z M189.489,110.311c4.584-1.844,1.618-8.32-2.427-6.656    c-2.25,0.81-4.591,1.665-6.834,2.608c-4.052,1.619-1.71,8.319,2.782,6.566C185.082,111.93,187.331,111.076,189.489,110.311z     M216.292,102.756c4.499-0.899,3.328-7.916-1.349-6.971c-2.341,0.45-4.769,0.989-7.103,1.573c-0.994,0.18-2.072,1.08-2.434,1.979    c-1.078,2.788,1.171,5.531,4.137,4.901C211.793,103.7,214.043,103.206,216.292,102.756z M243.996,99.428    c3.776,0,5.394-6.251-0.091-7.151c-2.342,0.046-5.039,0.27-7.466,0.495c-0.717,0-1.888,0.584-2.342,1.169    c-1.973,2.653-0.447,5.891,2.973,5.891C239.405,99.653,241.747,99.519,243.996,99.428z M271.963,100.282    c4.053,0.81,5.849-6.071,0.725-7.105l-7.195-0.629c-5.4,0-4.5,7.106-0.541,7.106C266.932,99.833,270.076,100.282,271.963,100.282z     M92.531,179.478c-2.604,4.272,3.69,7.644,5.939,3.866c1.257-1.979,2.604-3.912,3.954-5.801c2.433-4.182-3.145-7.735-5.841-4.048    C95.142,175.474,93.793,177.453,92.531,179.478z M388.082,226.877l0.178-0.271l0.092-0.044    c29.592-29.637,60.979-63.275,60.979-100.151c0-23.745-9.622-45.241-25.185-60.756c-15.557-15.56-36.966-25.184-60.71-25.184    c-23.745,0-45.24,9.624-60.802,25.184c-15.557,15.515-25.186,37.012-25.186,60.756c0,2.833,0.185,5.666,0.546,8.499l0.085,0.09    v0.09c4.678,36.066,37.689,68.897,66.65,97.724c6.564,6.475,12.858,12.771,18.706,18.932c5.755-6.161,12.142-12.457,18.706-18.932    L388.082,226.877z" style="fill-rule:evenodd;clip-rule:evenodd;"/></g></g><g id="Layer_1"/></svg>