<?xml version="1.0" ?><!DOCTYPE svg  PUBLIC '-//W3C//DTD SVG 1.1//EN'  'http://www.w3.org/Graphics/SVG/1.1/DTD/svg11.dtd'><svg width="512px" height="512px" viewBox="0 0 512 512" style="enable-background:new 0 0 512 512;" version="1.1" xml:space="preserve" xmlns="http://www.w3.org/2000/svg" xmlns:xlink="http://www.w3.org/1999/xlink"><g id="A_-_102_x2C__graduation_x2C__Avatar_x2C__graduate_x2C__scholar"><g><path d="M342.152,303.573c4.389-8.534,9.477-15.352,15.041-20.288c-17.554,4.431-33.109,13.928-45.02,26.84    c-0.237,0.259-0.477,0.516-0.711,0.776c-0.324,0.359-0.645,0.721-0.961,1.084c-0.475,0.543-0.939,1.095-1.4,1.648    c8.691,2.784,17.398,5.045,26.109,6.8C337.18,314.411,339.491,308.748,342.152,303.573z"/><polygon points="217.798,269.37 244.125,317.406 257.903,303.682 226.786,261.132   "/><polygon points="278.789,314.951 294.308,289.423 306.545,269.289 297.645,261.132 266.58,303.601   "/><path d="M327.507,375.604h-39.604c0.11,2.864,0.354,5.808,0.733,8.668c0.01,0.077,0,0.153,0.006,0.23    c1.997,15.009,7.633,28.884,15.989,40.705c9.514-3.152,19.042-5.707,28.578-7.66C329.718,404.695,327.762,390.431,327.507,375.604    z"/><path d="M281.361,368.345c0.816-20.424,7.884-39.266,19.345-54.656c0.149-0.276,0.341-0.521,0.557-0.735    c0.52-0.686,1.048-1.362,1.587-2.033c0.057-0.072,0.117-0.145,0.174-0.216c0.582-0.723,1.173-1.437,1.773-2.141    c0.155-0.183,0.307-0.367,0.465-0.549c0.559-0.646,1.125-1.282,1.7-1.914c0.448-0.494,0.905-0.98,1.365-1.466    c0.099-0.104,0.198-0.207,0.297-0.311c8.364-8.768,18.37-16.052,29.657-21.288l-26.166-10.283l-29.811,49.043    c-0.513,0.843-1.377,1.41-2.352,1.546c-0.15,0.021-0.303,0.031-0.451,0.031c-0.055,0-0.107-0.013-0.16-0.016    c-0.088-0.005-0.172-0.014-0.258-0.024c-0.142-0.019-0.279-0.046-0.414-0.082c-0.084-0.021-0.165-0.043-0.248-0.07    c-0.141-0.049-0.275-0.113-0.411-0.182c-0.065-0.034-0.134-0.062-0.198-0.1c-0.191-0.116-0.377-0.249-0.545-0.405l-14.977-13.925    l-16.63,16.564c-0.17,0.17-0.359,0.313-0.558,0.439c-0.065,0.042-0.136,0.071-0.204,0.108c-0.139,0.075-0.279,0.145-0.426,0.199    c-0.085,0.03-0.17,0.053-0.257,0.076c-0.142,0.04-0.283,0.07-0.429,0.09c-0.091,0.013-0.181,0.022-0.273,0.027    c-0.056,0.002-0.111,0.017-0.167,0.017c-0.155,0-0.312-0.011-0.467-0.034h-0.001c-0.766-0.11-1.458-0.485-1.967-1.047    c-0.169-0.188-0.318-0.396-0.442-0.623l-28.274-51.59l-66.482,26.062v82.563h33.815v-52.121c0-1.812,1.468-3.279,3.28-3.279    s3.28,1.468,3.28,3.279v52.121h95.61c-0.207-2.247-0.343-4.514-0.396-6.802c-0.02-0.769-0.029-1.534-0.029-2.297    c0-1.091,0.024-2.176,0.061-3.259C281.342,368.824,281.352,368.584,281.361,368.345z"/><path d="M333.303,326.744c-9.488-1.939-18.969-4.474-28.435-7.601c-10.091,14.208-16.178,31.258-16.946,49.29    c-0.01,0.203-0.017,0.407-0.023,0.61h39.608C327.763,354.081,329.748,339.688,333.303,326.744z"/><path d="M115.453,233.062c0.025,0.015,0.053,0.026,0.078,0.043c0.493,0.318,0.999,0.616,1.512,0.898    c0.224,0.122,0.454,0.234,0.682,0.35c0.198,0.102,0.396,0.201,0.597,0.297c0.346,0.165,0.694,0.325,1.047,0.474    c0.014,0.005,0.026,0.011,0.039,0.017c1.164,0.491,2.37,0.901,3.61,1.228c0.119,0.031,0.238,0.061,0.357,0.089    c0.461,0.115,0.927,0.216,1.397,0.307c0.354,0.068,0.709,0.136,1.068,0.188c0.229,0.035,0.461,0.06,0.692,0.089    c0.362,0.044,0.725,0.084,1.091,0.114c0.192,0.016,0.386,0.032,0.58,0.044c0.563,0.035,1.13,0.059,1.699,0.059    c0.571,0,1.138-0.023,1.702-0.059c0.191-0.012,0.381-0.027,0.571-0.044c0.372-0.03,0.741-0.07,1.109-0.116    c0.225-0.028,0.45-0.052,0.673-0.086c0.43-0.063,0.857-0.142,1.282-0.226c0.388-0.078,0.771-0.167,1.154-0.261    c0.14-0.035,0.28-0.068,0.418-0.105c1.215-0.32,2.396-0.723,3.538-1.203c0.035-0.015,0.071-0.028,0.106-0.043    c0.344-0.146,0.683-0.302,1.02-0.462c0.209-0.1,0.417-0.204,0.624-0.31c0.223-0.113,0.448-0.223,0.667-0.342    c0.514-0.283,1.02-0.58,1.514-0.898c0.02-0.014,0.042-0.022,0.063-0.035c7.579-4.801,12.625-13.255,12.625-22.872    c0-14.922-12.141-27.063-27.065-27.063c-14.92,0-27.059,12.14-27.059,27.063C102.842,219.808,107.882,228.259,115.453,233.062z     M129.901,192.576c9.718,0,17.624,7.905,17.624,17.621c0,9.716-7.906,17.621-17.624,17.621c-9.714,0-17.618-7.905-17.618-17.621    C112.284,200.48,120.187,192.576,129.901,192.576z"/><path d="M204.669,104.451c0-0.163,0.012-0.324,0.036-0.482c0.008-0.052,0.024-0.102,0.034-0.153    c0.021-0.104,0.04-0.209,0.07-0.311c0.018-0.06,0.045-0.117,0.067-0.176c0.032-0.089,0.062-0.179,0.101-0.264    c0.028-0.062,0.065-0.117,0.097-0.176c0.043-0.079,0.083-0.159,0.131-0.234c0.038-0.058,0.083-0.109,0.125-0.165    c0.053-0.07,0.102-0.142,0.16-0.208c0.046-0.052,0.099-0.098,0.148-0.147c0.062-0.062,0.121-0.126,0.188-0.183    c0.053-0.046,0.114-0.084,0.17-0.126c0.071-0.052,0.138-0.107,0.213-0.155c0.061-0.038,0.128-0.068,0.193-0.103    c0.072-0.039,0.141-0.082,0.217-0.116c0.011-0.004,0.022-0.009,0.033-0.014c0,0,0.001-0.001,0.002-0.001    c0.005-0.001,0.009-0.004,0.015-0.006c16.945-7.507,34.483-11.498,52.177-11.889c1.288-0.038,2.576-0.062,3.864-0.062    c18.707,0,37.793,4.013,56.73,11.926c0.002,0.001,0.002,0.001,0.004,0.001l0,0c0.015,0.006,0.027,0.011,0.042,0.017    c0.078,0.033,0.148,0.076,0.224,0.114c0.065,0.033,0.134,0.063,0.196,0.099c0.076,0.046,0.146,0.102,0.219,0.154    c0.059,0.042,0.121,0.08,0.176,0.125c0.07,0.056,0.13,0.12,0.192,0.181c0.052,0.05,0.108,0.097,0.157,0.15    c0.057,0.064,0.107,0.135,0.159,0.204c0.046,0.058,0.093,0.112,0.134,0.172c0.049,0.072,0.088,0.151,0.13,0.227    c0.036,0.063,0.077,0.123,0.108,0.188c0.038,0.083,0.067,0.17,0.1,0.256c0.024,0.064,0.054,0.125,0.074,0.19    c0.031,0.103,0.051,0.208,0.071,0.314c0.011,0.053,0.028,0.104,0.036,0.158c0.023,0.161,0.037,0.326,0.037,0.492v10.971    l22.701-13.246v24.695l-7.652,7.259c-0.682,0.645-1.023,1.513-1.023,2.381c0,0.81,0.298,1.622,0.9,2.256    c0.645,0.68,1.512,1.022,2.379,1.022c0.811,0,1.623-0.298,2.257-0.899l6.419-6.088l6.424,6.089    c0.635,0.601,1.446,0.898,2.257,0.898c0.87,0,1.735-0.343,2.382-1.023c0.6-0.634,0.898-1.446,0.898-2.256    c0-0.87-0.343-1.736-1.023-2.381l-7.658-7.259V98.392c0-0.015-0.005-0.027-0.005-0.042l2.796-1.632l-90.434-48.624l-90.431,48.626    l31.982,18.696V104.451z"/><path d="M225.432,130.955c1.028-0.203,2.058-0.398,3.087-0.584c0.171-0.03,0.342-0.061,0.513-0.091    c0.906-0.161,1.812-0.317,2.719-0.465c0.242-0.039,0.483-0.079,0.725-0.118c0.86-0.138,1.72-0.269,2.581-0.395    c0.257-0.038,0.515-0.075,0.771-0.112c0.879-0.125,1.759-0.243,2.638-0.356c0.216-0.027,0.431-0.056,0.647-0.083    c0.969-0.121,1.937-0.233,2.906-0.34c0.111-0.012,0.223-0.024,0.333-0.037c6.791-0.732,13.589-1.105,20.369-1.105    c17.219,0,34.766,2.372,52.219,7.055v-13.19v-14.452c-18.15-7.048-36.043-10.619-53.211-10.619c-0.873,0-1.746,0.016-2.619,0.034    c-15.987,0.462-32.066,3.995-47.881,10.53v14.506v13.162c4.69-1.287,9.402-2.391,14.129-3.326    C225.382,130.965,225.407,130.96,225.432,130.955z"/><path d="M222.135,216.593c7.741,13.594,21.162,29.798,41.137,29.798c36.314,0,56.123-54.724,56.123-82.84    c0-7.836-1.59-15.383-4.727-22.458c-17.459-4.808-34.986-7.245-52.121-7.245c-6.259,0-12.528,0.328-18.785,0.975    c-0.136,0.015-0.273,0.027-0.409,0.042c-0.842,0.089-1.683,0.186-2.524,0.287c-0.275,0.033-0.551,0.065-0.826,0.1    c-0.757,0.094-1.515,0.194-2.271,0.297c-0.342,0.048-0.685,0.094-1.028,0.143c-0.73,0.104-1.459,0.213-2.188,0.326    c-0.345,0.053-0.69,0.107-1.036,0.163c-0.757,0.121-1.513,0.246-2.269,0.377c-0.284,0.05-0.567,0.099-0.851,0.149    c-0.841,0.15-1.682,0.303-2.522,0.464c-0.148,0.028-0.297,0.058-0.445,0.087c-5.174,1.005-10.326,2.229-15.442,3.674    c-3.138,7.016-4.728,14.618-4.728,22.62C207.223,179.866,213.076,200.687,222.135,216.593z"/><path d="M132.716,255.999l10.061,9.768v-24.495c-3.448,1.438-7.153,2.279-10.97,2.49c-0.063,0.003-0.125,0.01-0.189,0.014    c-0.569,0.028-1.142,0.043-1.716,0.043s-1.146-0.015-1.716-0.043c-0.058-0.004-0.117-0.01-0.175-0.013    c-3.821-0.21-7.529-1.05-10.978-2.488v24.831l11.192-10.18C129.506,254.76,131.473,254.793,132.716,255.999z"/><path d="M129.901,221.258c6.101,0,11.064-4.962,11.064-11.061c0-6.1-4.963-11.062-11.064-11.062    c-6.097,0-11.058,4.962-11.058,11.062C118.844,216.296,123.804,221.258,129.901,221.258z"/><path d="M342.152,441.074c-2.713-5.275-5.064-11.057-7.056-17.213c-8.758,1.771-17.511,4.052-26.247,6.86    c12.268,14.85,29.107,25.786,48.344,30.641C351.629,456.426,346.541,449.609,342.152,441.074z"/><path d="M417.16,441.074c-4.391,8.539-9.479,15.356-15.047,20.294c19.268-4.854,36.139-15.798,48.424-30.66    c-8.743-2.832-17.512-5.128-26.303-6.903C422.239,429.982,419.882,435.782,417.16,441.074z"/><path d="M425.242,375.604h-42.308v37.188c12.265,0.166,24.515,1.32,36.729,3.47C423.078,403.866,424.99,390.027,425.242,375.604z"/><path d="M417.74,422.582c-11.576-1.992-23.184-3.062-34.806-3.223v44.546c10.575-1.552,20.554-10.586,28.393-25.83    C413.772,433.318,415.91,428.116,417.74,422.582z"/><path d="M419.562,328.03c-12.183,2.137-24.397,3.285-36.627,3.451v37.563h42.308C424.988,354.479,423.035,340.518,419.562,328.03z    "/><path d="M347.985,438.074c7.841,15.244,17.817,24.278,28.39,25.831v-44.541c-11.59,0.182-23.191,1.271-34.785,3.273    C343.417,428.151,345.547,433.333,347.985,438.074z"/><path d="M426.115,417.49c9.571,1.96,19.119,4.528,28.635,7.708c9.992-14.124,16.092-31.178,16.744-49.595h-39.691    C431.55,390.409,429.599,404.654,426.115,417.49z"/><path d="M431.803,369.044h39.691c-0.656-18.548-6.838-35.716-16.958-49.898c-9.476,3.156-18.981,5.707-28.512,7.653    C429.566,339.729,431.548,354.103,431.803,369.044z"/><path d="M339.663,416.315c12.235-2.158,24.479-3.333,36.712-3.521v-37.191h-42.309C334.32,390.05,336.24,403.906,339.663,416.315z    "/><path d="M411.327,306.573c-7.839-15.244-17.817-24.278-28.393-25.831v44.17c11.581-0.161,23.151-1.223,34.688-3.201    C415.818,316.309,413.721,311.229,411.327,306.573z"/><path d="M417.16,303.573c2.67,5.19,4.988,10.872,6.959,16.916c8.745-1.762,17.472-4.034,26.169-6.843    c-12.265-14.712-29.035-25.547-48.175-30.367C407.682,288.217,412.77,295.035,417.16,303.573z"/><path d="M347.985,306.573c-2.385,4.641-4.479,9.701-6.279,15.082c11.554,1.99,23.116,3.071,34.669,3.253v-44.166    C365.803,282.295,355.826,291.329,347.985,306.573z"/><path d="M334.066,369.044h42.309v-37.568c-12.199-0.187-24.406-1.353-36.607-3.5C336.281,340.477,334.322,354.458,334.066,369.044    z"/><path d="M110.02,405.61c0,1.812,1.468,3.28,3.28,3.28h140.013c1.812,0,3.28-1.469,3.28-3.28c0-1.811-1.468-3.279-3.28-3.279    H113.299C111.488,402.331,110.02,403.8,110.02,405.61z"/><path d="M179.418,418.859H68.919c-1.812,0-3.28,1.469-3.28,3.28s1.468,3.28,3.28,3.28h110.499c1.812,0,3.28-1.469,3.28-3.28    S181.229,418.859,179.418,418.859z"/><path d="M57.601,418.859H43.787c-1.812,0-3.28,1.469-3.28,3.28s1.468,3.28,3.28,3.28h13.814c1.812,0,3.28-1.469,3.28-3.28    S59.412,418.859,57.601,418.859z"/><path d="M279.277,418.407h-52.385c-1.812,0-3.28,1.469-3.28,3.279c0,1.812,1.468,3.28,3.28,3.28h52.385    c1.813,0,3.279-1.469,3.279-3.28C282.557,419.876,281.09,418.407,279.277,418.407z"/></g></g><g id="Layer_1"/></svg>