<svg><g id="Icon"><path d="M10,23c0,-0.552 -0.448,-1 -1,-1l-6,0c-0.552,0 -1,0.448 -1,1l0,6c0,0.552 0.448,1 1,1l6,0c0.552,0 1,-0.448 1,-1l0,-6Zm-2,1l-0,4c-0,0 -4,0 -4,0c0,-0 0,-4 0,-4l4,0Z"/><path d="M20,23c0,-0.552 -0.448,-1 -1,-1l-6,0c-0.552,0 -1,0.448 -1,1l0,6c0,0.552 0.448,1 1,1l6,0c0.552,0 1,-0.448 1,-1l0,-6Zm-2,1l0,4c-0,0 -4,0 -4,0c0,-0 0,-4 0,-4l4,0Z"/><path d="M30,23c0,-0.552 -0.448,-1 -1,-1l-6,0c-0.552,0 -1,0.448 -1,1l0,6c0,0.552 0.448,1 1,1l6,0c0.552,0 1,-0.448 1,-1l0,-6Zm-2,1l0,4c-0,0 -4,0 -4,0c0,-0 0,-4 0,-4l4,0Z"/><path d="M10,13c0,-0.552 -0.448,-1 -1,-1l-6,0c-0.552,0 -1,0.448 -1,1l0,6c0,0.552 0.448,1 1,1l6,0c0.552,0 1,-0.448 1,-1l0,-6Zm-2,1l-0,4c-0,0 -4,0 -4,0c0,-0 0,-4 0,-4l4,0Z"/><path d="M20,13c0,-0.552 -0.448,-1 -1,-1l-6,0c-0.552,0 -1,0.448 -1,1l0,6c0,0.552 0.448,1 1,1l6,0c0.552,0 1,-0.448 1,-1l0,-6Zm-2,1l0,4c-0,0 -4,0 -4,0c0,-0 0,-4 0,-4l4,0Z"/><path d="M30,13c0,-0.552 -0.448,-1 -1,-1l-6,0c-0.552,0 -1,0.448 -1,1l0,6c0,0.552 0.448,1 1,1l6,0c0.552,0 1,-0.448 1,-1l0,-6Zm-2,1l0,4c-0,0 -4,0 -4,0c0,-0 0,-4 0,-4l4,0Z"/><path d="M10,3c0,-0.552 -0.448,-1 -1,-1l-6,0c-0.552,0 -1,0.448 -1,1l0,6c0,0.552 0.448,1 1,1l6,0c0.552,0 1,-0.448 1,-1l0,-6Zm-2,1l-0,4c-0,0 -4,0 -4,0c0,-0 0,-4 0,-4l4,0Z"/><path d="M20,3c0,-0.552 -0.448,-1 -1,-1l-6,0c-0.552,0 -1,0.448 -1,1l0,6c0,0.552 0.448,1 1,1l6,0c0.552,0 1,-0.448 1,-1l0,-6Zm-2,1l0,4c-0,0 -4,0 -4,0c0,-0 0,-4 0,-4l4,0Z"/><path d="M30,3c0,-0.552 -0.448,-1 -1,-1l-6,0c-0.552,0 -1,0.448 -1,1l0,6c0,0.552 0.448,1 1,1l6,0c0.552,0 1,-0.448 1,-1l0,-6Zm-2,1l0,4c-0,0 -4,0 -4,0c0,-0 0,-4 0,-4l4,0Z"/></g></svg>