<?xml version="1.0" ?><!DOCTYPE svg  PUBLIC '-//W3C//DTD SVG 1.1//EN'  'http://www.w3.org/Graphics/SVG/1.1/DTD/svg11.dtd'><svg viewBox="0 0 512 512" style="enable-background:new 0 0 512 512;" version="1.1" xml:space="preserve" xmlns="http://www.w3.org/2000/svg" xmlns:xlink="http://www.w3.org/1999/xlink"><g id="B_-_112_x2C__Avatar_x2C__business_x2C__human_x2C__man_x2C__person_x2C__profile_x2C__user"><g><path d="M273.449,335.008c-1.703,0-3.163-1.421-3.163-3.206    c0-1.746,1.46-3.207,3.163-3.207h22.811c1.789,0,3.25,1.461,3.25,3.207c0,1.785-1.461,3.206-3.25,3.206H273.449z M273.449,349.336    c-1.703,0-3.163-1.462-3.163-3.206c0-1.787,1.46-3.207,3.163-3.207h22.811c1.789,0,3.25,1.42,3.25,3.207    c0,1.744-1.461,3.206-3.25,3.206H273.449z M320.617,287.396c-6.578-3.489-14.287-7.631-23.14-12.622l-24.271,39.939    c-0.08,0.244-0.244,0.487-0.487,0.69c-1.216,1.298-3.249,1.38-4.545,0.162l-12.096-11.325l-13.556,13.477v0.04l-0.086,0.041l0,0    v0.04l-0.079,0.042l0,0l-0.079,0.04v0.04l0,0l-0.086,0.041l0,0l0,0l-0.079,0.04l0,0l-0.079,0.082l0,0v0.04l-0.244,0.121    l-0.086,0.041l0,0l-0.079,0.041l0,0h-0.079v0.04h-0.085l0,0l-0.08,0.041l-0.079,0.04l0,0h-0.085v0.04l0,0h-0.08l0,0l-0.079,0.041    l0,0h-0.085l0,0l-0.08,0.04l0,0h-0.079l0,0h-0.085l0,0l-0.08,0.042l0,0h-0.079l0,0h-0.085l0,0h-0.079l0,0h-0.08h-0.164l0,0h-0.165    l0,0h-0.079h-0.086v-0.042h-0.079l0,0h-0.079l0,0l0,0l-0.086-0.04l0,0h-0.079l0,0l-0.079-0.041h-0.086l0,0l-0.079-0.04l0,0    l-0.244-0.081l0,0l-0.079-0.04l0,0l-0.086-0.041l0,0l-0.079-0.041l0,0l-0.079-0.04l0,0l-0.085-0.041l-0.08-0.08h-0.079v-0.041    l-0.165-0.081l0,0v-0.041l-0.079-0.04l0,0l-0.085-0.04l0,0v-0.042v-0.04l-0.08-0.041l0,0l-0.079-0.04v-0.041l0,0v-0.041h-0.085    v-0.04v-0.04l-0.08-0.041l0,0l-0.079-0.082v-0.04v-0.04l-0.085-0.041l0,0v-0.041v-0.04l-0.079-0.041l0,0v-0.04l0,0l-0.08-0.163    l-0.085-0.122l-23.054-42.05c-9.012,5.155-16.884,9.336-23.541,12.866c-15.667,8.362-23.784,12.705-27.599,18.997    c-4.223,6.818-4.059,17.088-3.815,38.519c0.079,5.967,0.158,12.745,0.158,19.198C191.706,371.66,223.85,375.23,256,375.15    c32.145-0.041,64.288-3.652,96.438-10.757c0-6.17,0.079-12.785,0.165-18.67c0.243-21.635,0.4-32.025-3.9-38.966    C344.809,300.385,336.527,295.919,320.617,287.396z M260.301,299.41l9.414,8.809l22.566-37.181l-6.735-6.17L260.301,299.41z     M219.626,271.079l21.437,39.088l10.714-10.675l-25.329-34.624L219.626,271.079z M298.293,267.832    c10.307,5.885,18.51,10.27,25.323,13.922c16.97,9.092,25.737,13.801,30.604,21.676c5.197,8.482,5.039,19.482,4.796,42.375    c-0.086,5.521-0.165,11.893-0.165,21.146c0,1.624-1.217,3.004-2.842,3.206c-33.281,7.51-66.649,11.366-100.01,11.406    c-33.446,0.081-66.894-3.734-100.34-11.486c-1.459-0.325-2.519-1.664-2.519-3.126c0-9.376-0.08-15.992-0.158-21.675    c-0.243-22.689-0.408-33.566,4.703-41.97c4.795-7.752,13.477-12.38,30.118-21.269c6.985-3.693,15.346-8.199,25.982-14.247    l10.958-10.066c1.296-1.177,3.328-1.096,4.545,0.203L256,294.377l26.705-36.449c1.216-1.299,3.248-1.38,4.544-0.203    L298.293,267.832z M219.626,145.739c9.499-9.539,22.732-15.465,37.262-15.465c14.536,0,27.685,5.885,37.183,15.383l0.078,0.082    c9.584,9.579,15.51,22.73,15.51,37.301c0,15.1-5.926,36.977-16.97,53.011c-8.768,12.704-20.778,21.918-35.801,21.918    c-15.017,0-27.033-9.214-35.801-21.918c-11.038-16.034-16.884-37.911-16.884-53.011    C204.203,168.469,210.049,155.277,219.626,145.739z M256.888,137.013c-12.74,0-24.191,5.114-32.552,13.475    c-8.281,8.32-13.477,19.849-13.477,32.552c0,14.044,5.439,34.298,15.753,49.235c7.63,11,17.779,18.996,30.276,18.996    c12.503,0,22.653-7.997,30.282-18.996c10.308-14.937,15.747-35.191,15.747-49.235c0-12.744-5.11-24.232-13.478-32.552    C281.079,142.126,269.635,137.013,256.888,137.013z M268.339,170.701c0.158,0.122,0.323,0.163,0.243,0.042L268.339,170.701z     M268.418,170.54c-0.164-0.122-0.243-0.122-0.408,0.04l0.329,0.122l0.243,0.042L268.418,170.54z M217.844,172.365    c-0.815-1.542-0.164-3.49,1.382-4.302c1.618-0.812,3.485-0.162,4.301,1.38c0.895,1.665,1.869,3.044,3,4.262    c3.492,3.693,8.281,5.561,13.155,6.008c4.953,0.486,9.984-0.528,13.799-2.478c1.296-0.689,2.52-1.501,3.407-2.394    c10.07-9.457,14.042-10.918,16.153-8.727l0.086,0.122c1.382,1.543,1.053,3.41,0.645,5.561c-0.243,1.096-0.486,2.354-0.4,2.638    c0.157,0.406,0.243-0.852,1.625-1.339c3.328-1.258,8.359-2.8,12.826-3.003c5.518-0.244,10.386,1.379,12.01,7.103    c0.407,1.706-0.565,3.491-2.27,3.938c-1.711,0.487-3.492-0.528-3.979-2.191c-0.487-2.03-2.842-2.557-5.439-2.436    c-3.736,0.162-7.959,1.501-10.959,2.557c-6.006,2.273-8.688,0.65-9.827-2.395c-0.485-1.461-0.4-3.003-0.242-4.465    c-0.81,1.543-2.355,4.1-5.763,7.307c-1.381,1.298-3.085,2.476-4.953,3.409c-4.788,2.517-11.123,3.734-17.292,3.167    c-6.327-0.568-12.582-3.045-17.206-7.956C220.356,176.465,218.982,174.557,217.844,172.365z M270.529,202.604    c-1.624,0.649-3.492-0.081-4.144-1.704c-0.729-1.624,0-3.532,1.624-4.221c0.086,0,11.688-5.237,17.7,0.689    c1.217,1.258,1.217,3.288,0,4.546c-1.302,1.258-3.327,1.258-4.631,0C278.324,199.155,270.608,202.563,270.529,202.604z     M245.765,196.679c1.625,0.689,2.354,2.597,1.71,4.221c-0.73,1.624-2.598,2.354-4.224,1.704c0-0.041-7.794-3.449-10.556-0.689    c-1.296,1.258-3.329,1.258-4.546,0c-1.295-1.258-1.295-3.288,0-4.546C234.077,191.442,245.687,196.679,245.765,196.679z     M408.367,103.606C369.322,64.641,315.5,40.491,256,40.491c-59.506,0-113.409,24.15-152.373,63.116    C64.576,142.614,40.47,196.517,40.47,256.02s24.106,113.367,63.157,152.374C142.591,447.4,196.494,471.509,256,471.509    c59.5,0,113.322-24.108,152.367-63.115c38.972-39.007,63.163-92.87,63.163-152.374S447.418,142.614,408.367,103.606z     M381.662,130.315C349.519,98.168,305.028,78.278,256,78.278c-49.114,0-93.519,19.89-125.669,52.037    c-32.144,32.188-52.114,76.633-52.114,125.705c0,49.073,19.97,93.518,52.114,125.666c32.15,32.146,76.555,52.036,125.669,52.036    c49.028,0,93.519-19.89,125.662-52.036c32.145-32.147,52.035-76.593,52.035-125.666    C433.697,206.948,413.807,162.503,381.662,130.315z M256,71.826c50.817,0,96.926,20.619,130.207,53.943    c33.282,33.364,53.988,79.393,53.988,130.251c0,50.86-20.706,96.887-53.988,130.21c-33.281,33.325-79.39,53.943-130.207,53.943    c-50.903,0-96.933-20.618-130.214-53.943c-33.368-33.323-53.981-79.351-53.981-130.21c0-50.858,20.613-96.887,53.981-130.251    C159.067,92.445,205.097,71.826,256,71.826z" style="fill-rule:evenodd;clip-rule:evenodd;"/></g></g><g id="Layer_1"/></svg>