<?xml version="1.0" ?><!DOCTYPE svg  PUBLIC '-//W3C//DTD SVG 1.1//EN'  'http://www.w3.org/Graphics/SVG/1.1/DTD/svg11.dtd'><svg width="512px" height="512px" viewBox="0 0 512 512" style="enable-background:new 0 0 512 512;" version="1.1" xml:space="preserve" xmlns="http://www.w3.org/2000/svg" xmlns:xlink="http://www.w3.org/1999/xlink"><g id="A_-_117_x2C__computer_x2C__screen_x2C__software_x2C__editing"><g><rect height="5.286" width="5.632" x="243.304" y="393.627"/><rect height="5.285" width="5.626" x="320.469" y="424.527"/><rect height="5.286" width="5.632" x="115.927" y="455.171"/><rect height="5.286" width="5.624" x="294.636" y="393.627"/><rect height="5.285" width="5.632" x="243.304" y="424.527"/><rect height="5.285" width="5.633" x="268.793" y="424.527"/><rect height="5.286" width="5.633" x="141.417" y="455.171"/><rect height="5.284" width="5.632" x="346.304" y="454.397"/><rect height="5.285" width="5.632" x="346.304" y="424.527"/><rect height="5.285" width="5.633" x="141.417" y="424.527"/><rect height="5.286" width="5.626" x="320.469" y="393.627"/><rect height="5.286" width="5.625" x="166.916" y="393.627"/><rect height="5.285" width="5.625" x="192.406" y="424.527"/><rect height="5.286" width="5.625" x="192.406" y="393.627"/><rect height="5.285" width="5.625" x="166.916" y="424.527"/><rect height="5.286" width="5.625" x="192.406" y="455.171"/><rect height="5.286" width="5.633" x="268.793" y="393.627"/><rect height="5.285" width="5.624" x="217.813" y="424.527"/><rect height="5.286" width="63.565" x="218.156" y="455.171"/><rect height="5.286" width="5.633" x="141.417" y="393.627"/><rect height="5.286" width="5.625" x="166.916" y="455.171"/><rect height="5.285" width="5.624" x="294.636" y="424.527"/><rect height="5.286" width="5.624" x="217.813" y="393.627"/><rect height="5.284" width="5.626" x="320.469" y="454.397"/><path d="M166.292,171.625c10.691,0,17.235-17.104,17.235-26.418c0-9.55-7.732-17.32-17.235-17.32c-9.5,0-17.229,7.77-17.229,17.32    C149.062,154.521,155.604,171.625,166.292,171.625z"/><path d="M108.289,234.799H374.68V80.851H108.289V234.799z M222.583,114.566c0-1.811,1.469-3.28,3.28-3.28h137.25    c1.811,0,3.279,1.469,3.279,3.28v107.032c0,1.812-1.469,3.28-3.279,3.28h-137.25c-1.811,0-3.28-1.468-3.28-3.28V114.566z     M166.292,121.328c13.121,0,23.795,10.711,23.795,23.879c0,11.835-7.952,32.978-23.795,32.978    c-15.619,0-23.789-21.469-23.789-32.978C142.502,132.04,153.174,121.328,166.292,121.328z M121.3,191.13    c0-1.352,0.828-2.564,2.087-3.056l24.636-9.613c1.042-0.408,2.219-0.254,3.124,0.404l14.805,10.786l14.894-10.791    c0.904-0.655,2.08-0.805,3.12-0.398l24.552,9.613c1.257,0.492,2.084,1.705,2.084,3.055v30.468c0,1.812-1.469,3.28-3.28,3.28    H124.58c-1.812,0-3.28-1.468-3.28-3.28V191.13z"/><path d="M135.201,202.46c0-1.812,1.469-3.28,3.28-3.28c1.812,0,3.28,1.468,3.28,3.28v15.776h48.374V202.46    c0-1.812,1.469-3.28,3.28-3.28c1.812,0,3.28,1.468,3.28,3.28v15.858h7.35v-24.951l-20.799-8.144l-15.372,11.138    c-1.151,0.833-2.707,0.831-3.855-0.005l-15.28-11.132l-20.877,8.146v24.948h7.341V202.46z"/><path d="M359.833,117.846h-130.69v100.472h130.69V117.846z M290.838,189.497l-3.778-9.957h-17.426l-3.685,9.957h-9.27    l16.908-43.603h9.269l17.427,43.603H290.838z M324.056,189.497c-0.259-0.598-0.519-1.374-0.77-2.487    c-0.176-0.431-0.26-0.774-0.345-0.946c-1.372,1.374-2.92,2.403-4.555,3.178c-1.625,0.687-3.34,1.03-5.148,1.03    c-3.26,0-5.837-0.946-7.723-2.662c-1.801-1.717-2.746-4.032-2.746-6.696c0-1.716,0.427-3.345,1.289-4.719    c0.855-1.374,2.061-2.491,3.602-3.261c1.457-0.688,3.692-1.374,6.607-1.888c3.868-0.775,6.615-1.461,8.072-2.061v-0.857    c0-1.632-0.428-2.747-1.206-3.522c-0.771-0.686-2.228-0.942-4.462-0.942c-1.543,0-2.656,0.256-3.518,0.858    c-0.855,0.6-1.457,1.629-1.977,3.09l-7.555-1.29c0.862-3.09,2.321-5.405,4.381-6.867c2.06-1.457,5.15-2.231,9.27-2.231    c3.693,0,6.523,0.431,8.324,1.373c1.808,0.858,3.09,1.976,3.868,3.35c0.686,1.286,1.114,3.777,1.114,7.466l-0.176,9.701    c0,2.746,0.176,4.807,0.435,6.093c0.251,1.373,0.771,2.747,1.458,4.291H324.056z"/><path d="M424.394,355.604c-0.79,0-1.57,0.041-2.339,0.12V254.011c0-1.812-1.469-3.28-3.279-3.28h-26.67V77.315    c0-7.611-6.154-13.803-13.719-13.803H105.27c-7.611,0-13.804,6.192-13.804,13.803V210.9c-0.156-0.022-0.312-0.047-0.474-0.047    h-22.92c-1.812,0-3.28,1.469-3.28,3.28v212.696c0,1.811,1.469,3.279,3.28,3.279h35.235v41.419h276.949v-89.486H103.308v41.508    H71.352V217.413h19.641c0.162,0,0.318-0.025,0.474-0.048v56.592c0,7.611,6.192,13.803,13.804,13.803h101.535h69.956h101.627    c7.564,0,13.719-6.191,13.719-13.803V257.29h23.389v99.721c0,0.135,0.024,0.262,0.04,0.392c-8.145,3.46-13.87,11.538-13.87,20.929    v2.558h45.544v-2.558C447.208,365.8,436.973,355.604,424.394,355.604z M339.744,390.347c0-1.811,1.468-3.279,3.279-3.279h12.191    c1.813,0,3.28,1.469,3.28,3.279v11.846c0,1.812-1.468,3.28-3.28,3.28h-12.191c-1.812,0-3.279-1.469-3.279-3.28V390.347z     M339.744,421.247c0-1.811,1.468-3.279,3.279-3.279h12.191c1.813,0,3.28,1.469,3.28,3.279v11.846c0,1.812-1.468,3.28-3.28,3.28    h-12.191c-1.812,0-3.279-1.469-3.279-3.28V421.247z M339.744,451.117c0-1.811,1.468-3.279,3.279-3.279h12.191    c1.813,0,3.28,1.469,3.28,3.279v11.845c0,1.812-1.468,3.28-3.28,3.28h-12.191c-1.812,0-3.279-1.469-3.279-3.28V451.117z     M313.91,390.347c0-1.811,1.469-3.279,3.279-3.279h12.186c1.811,0,3.279,1.469,3.279,3.279v11.846c0,1.812-1.469,3.28-3.279,3.28    h-12.186c-1.811,0-3.279-1.469-3.279-3.28V390.347z M313.91,421.247c0-1.811,1.469-3.279,3.279-3.279h12.186    c1.811,0,3.279,1.469,3.279,3.279v11.846c0,1.812-1.469,3.28-3.279,3.28h-12.186c-1.811,0-3.279-1.469-3.279-3.28V421.247z     M313.91,451.117c0-1.811,1.469-3.279,3.279-3.279h12.186c1.811,0,3.279,1.469,3.279,3.279v11.845c0,1.812-1.469,3.28-3.279,3.28    h-12.186c-1.811,0-3.279-1.469-3.279-3.28V451.117z M288.076,390.347c0-1.811,1.469-3.279,3.279-3.279h12.184    c1.813,0,3.28,1.469,3.28,3.279v11.846c0,1.812-1.468,3.28-3.28,3.28h-12.184c-1.811,0-3.279-1.469-3.279-3.28V390.347z     M288.076,421.247c0-1.811,1.469-3.279,3.279-3.279h12.184c1.813,0,3.28,1.469,3.28,3.279v11.846c0,1.812-1.468,3.28-3.28,3.28    h-12.184c-1.811,0-3.279-1.469-3.279-3.28V421.247z M288.28,451.892v11.846c0,1.811-1.468,3.279-3.28,3.279h-70.124    c-1.812,0-3.28-1.469-3.28-3.279v-11.846c0-1.812,1.469-3.28,3.28-3.28H285C286.813,448.611,288.28,450.08,288.28,451.892z     M262.234,390.347c0-1.811,1.467-3.279,3.279-3.279h12.192c1.812,0,3.28,1.469,3.28,3.279v11.846c0,1.812-1.469,3.28-3.28,3.28    h-12.192c-1.813,0-3.279-1.469-3.279-3.28V390.347z M262.234,421.247c0-1.811,1.467-3.279,3.279-3.279h12.192    c1.812,0,3.28,1.469,3.28,3.279v11.846c0,1.812-1.469,3.28-3.28,3.28h-12.192c-1.813,0-3.279-1.469-3.279-3.28V421.247z     M236.744,390.347c0-1.811,1.469-3.279,3.28-3.279h12.192c1.811,0,3.28,1.469,3.28,3.279v11.846c0,1.812-1.469,3.28-3.28,3.28    h-12.192c-1.811,0-3.28-1.469-3.28-3.28V390.347z M236.744,421.247c0-1.811,1.469-3.279,3.28-3.279h12.192    c1.811,0,3.28,1.469,3.28,3.279v11.846c0,1.812-1.469,3.28-3.28,3.28h-12.192c-1.811,0-3.28-1.469-3.28-3.28V421.247z     M211.254,390.347c0-1.811,1.468-3.279,3.279-3.279h12.185c1.811,0,3.28,1.469,3.28,3.279v11.846c0,1.812-1.469,3.28-3.28,3.28    h-12.185c-1.812,0-3.279-1.469-3.279-3.28V390.347z M211.254,421.247c0-1.811,1.468-3.279,3.279-3.279h12.185    c1.811,0,3.28,1.469,3.28,3.279v11.846c0,1.812-1.469,3.28-3.28,3.28h-12.185c-1.812,0-3.279-1.469-3.279-3.28V421.247z     M185.846,390.347c0-1.811,1.469-3.279,3.28-3.279h12.185c1.812,0,3.28,1.469,3.28,3.279v11.846c0,1.812-1.468,3.28-3.28,3.28    h-12.185c-1.812,0-3.28-1.469-3.28-3.28V390.347z M185.846,421.247c0-1.811,1.469-3.279,3.28-3.279h12.185    c1.812,0,3.28,1.469,3.28,3.279v11.846c0,1.812-1.468,3.28-3.28,3.28h-12.185c-1.812,0-3.28-1.469-3.28-3.28V421.247z     M185.846,451.892c0-1.812,1.469-3.28,3.28-3.28h12.185c1.812,0,3.28,1.469,3.28,3.28v11.846c0,1.811-1.468,3.279-3.28,3.279    h-12.185c-1.812,0-3.28-1.469-3.28-3.279V451.892z M160.356,390.347c0-1.811,1.469-3.279,3.28-3.279h12.185    c1.811,0,3.28,1.469,3.28,3.279v11.846c0,1.812-1.469,3.28-3.28,3.28h-12.185c-1.811,0-3.28-1.469-3.28-3.28V390.347z     M160.356,421.247c0-1.811,1.469-3.279,3.28-3.279h12.185c1.811,0,3.28,1.469,3.28,3.279v11.846c0,1.812-1.469,3.28-3.28,3.28    h-12.185c-1.811,0-3.28-1.469-3.28-3.28V421.247z M160.356,451.892c0-1.812,1.469-3.28,3.28-3.28h12.185    c1.811,0,3.28,1.469,3.28,3.28v11.846c0,1.811-1.469,3.279-3.28,3.279h-12.185c-1.811,0-3.28-1.469-3.28-3.279V451.892z     M134.857,390.347c0-1.811,1.468-3.279,3.28-3.279h12.192c1.811,0,3.28,1.469,3.28,3.279v11.846c0,1.812-1.469,3.28-3.28,3.28    h-12.192c-1.812,0-3.28-1.469-3.28-3.28V390.347z M134.857,421.247c0-1.811,1.468-3.279,3.28-3.279h12.192    c1.811,0,3.28,1.469,3.28,3.279v11.846c0,1.812-1.469,3.28-3.28,3.28h-12.192c-1.812,0-3.28-1.469-3.28-3.28V421.247z     M134.857,451.892c0-1.812,1.468-3.28,3.28-3.28h12.192c1.811,0,3.28,1.469,3.28,3.28v11.846c0,1.811-1.469,3.279-3.28,3.279    h-12.192c-1.812,0-3.28-1.469-3.28-3.279V451.892z M109.367,390.347c0-1.811,1.468-3.279,3.28-3.279h12.191    c1.812,0,3.279,1.469,3.279,3.279v11.846c0,1.812-1.468,3.28-3.279,3.28h-12.191c-1.813,0-3.28-1.469-3.28-3.28V390.347z     M109.367,421.247c0-1.811,1.468-3.279,3.28-3.279h12.191c1.812,0,3.279,1.469,3.279,3.279v11.846c0,1.812-1.468,3.28-3.279,3.28    h-12.191c-1.813,0-3.28-1.469-3.28-3.28V421.247z M109.367,451.892c0-1.812,1.468-3.28,3.28-3.28h12.191    c1.812,0,3.279,1.469,3.279,3.28v11.846c0,1.811-1.468,3.279-3.279,3.279h-12.191c-1.813,0-3.28-1.469-3.28-3.279V451.892z     M241.824,282.989c-5.354,0-9.71-4.36-9.71-9.719c0-5.357,4.356-9.715,9.71-9.715c5.36,0,9.72,4.357,9.72,9.715    C251.543,278.629,247.184,282.989,241.824,282.989z M381.24,238.079c0,1.812-1.469,3.28-3.28,3.28H105.01    c-1.812,0-3.28-1.468-3.28-3.28V77.571c0-1.812,1.469-3.28,3.28-3.28h272.95c1.812,0,3.28,1.468,3.28,3.28V238.079z"/><rect height="5.286" width="5.632" x="115.927" y="393.627"/><path d="M427.674,409.23c0,1.812-1.469,3.28-3.28,3.28s-3.28-1.469-3.28-3.28v-21.782h-19.449v22.729    c0,12.531,10.195,22.726,22.729,22.726c12.579,0,22.814-10.194,22.814-22.726v-22.729h-19.534V409.23z"/><polygon points="272.297,172.159 284.23,172.159 278.133,156.109   "/><path d="M312.726,177.138c-1.112,0.774-1.632,1.716-1.632,2.917c0,1.202,0.428,2.147,1.289,3.006    c0.855,0.859,1.977,1.287,3.35,1.287c1.457,0,2.914-0.515,4.289-1.458c1.027-0.774,1.715-1.717,1.975-2.747    c0.26-0.687,0.344-2.06,0.344-4.121v-1.632c-1.03,0.343-2.747,0.773-5.066,1.29C314.953,176.107,313.412,176.622,312.726,177.138z    "/><path d="M151.718,349.769v6.914h180.214v-6.914h-40.557c-0.007,0-0.012,0-0.02,0h-99.139H151.718z"/><path d="M241.824,270.115c-1.737,0-3.151,1.414-3.151,3.155c0,1.713,1.443,3.159,3.151,3.159c1.713,0,3.16-1.446,3.16-3.159    C244.983,271.529,243.566,270.115,241.824,270.115z"/><polygon points="209.333,294.319 196.471,343.209 287.102,343.209 274.231,294.319   "/><rect height="5.286" width="5.632" x="346.304" y="393.627"/><rect height="5.285" width="5.632" x="115.927" y="424.527"/><path d="M70.764,150.292c1.811,0,3.279-1.469,3.279-3.28V62.724c0-8.653,7.038-15.692,15.688-15.692h48.41    c1.812,0,3.28-1.468,3.28-3.28c0-1.811-1.468-3.28-3.28-3.28H89.73c-12.268,0-22.247,9.982-22.247,22.251v84.288    C67.483,148.823,68.951,150.292,70.764,150.292z"/><path d="M393.841,47.032c8.649,0,15.688,7.039,15.688,15.692v35.618c0,1.812,1.469,3.28,3.28,3.28c1.811,0,3.279-1.468,3.279-3.28    V62.724c0-12.27-9.979-22.251-22.247-22.251c-1.812,0-3.28,1.469-3.28,3.28C390.561,45.564,392.029,47.032,393.841,47.032z"/></g></g><g id="Layer_1"/></svg>