<?xml version="1.0" ?><!DOCTYPE svg  PUBLIC '-//W3C//DTD SVG 1.1//EN'  'http://www.w3.org/Graphics/SVG/1.1/DTD/svg11.dtd'><svg width="512px" height="512px" viewBox="0 0 512 512" style="enable-background:new 0 0 512 512;" version="1.1" xml:space="preserve" xmlns="http://www.w3.org/2000/svg" xmlns:xlink="http://www.w3.org/1999/xlink"><g id="B_-_107_x2C__presentation_x2C__Analytics_x2C__business_x2C__graph_x2C__marketing_x2C__people_x2C__statistics"><g><path d="M416.648,329.979c0-1.609,1.272-2.959,2.917-2.959    c1.647,0,2.996,1.35,2.996,2.959v34.18h30.325v-58.216h-66.64v58.216h30.401V329.979z M417.096,243.497h5.019v-6.703h-5.019    V243.497z M422.785,230.879h2.245h0.076h9.511l-0.525-10.108L422.785,230.879z M405.042,221.07l-0.526,9.809h9.512h0.148h1.049    L405.042,221.07z M429.526,292.615l-21.341-0.038c-1.646-0.226-2.771-1.685-2.545-3.296l5.541-42.902v-9.585h-9.734    c-1.648,0-2.996-1.31-2.996-2.957l0.822-14.938l-31.594,12.392v68.699h12.427v-55.708c0-1.722,1.425-3.108,3.069-3.108    c1.723,0,3.071,1.386,3.071,3.108v55.708h66.64v-55.708c0-1.722,1.424-3.108,3.068-3.108c1.723,0,3.146,1.386,3.146,3.108v55.708    h12.429v-68.699l-31.598-12.392l0.749,14.788c0.076,1.611-1.197,2.996-2.772,3.107h-9.882v9.623l4.416,43.203    C432.443,291.267,431.171,292.615,429.526,292.615z M411.929,286.662h14.303l-3.818-37.213h-5.692L411.929,286.662z     M413.201,173.525c1.572,0.636,2.322,2.358,1.647,3.855c-0.599,1.535-2.321,2.247-3.817,1.646c0,0-4.117-1.795-5.242-0.673    c-1.198,1.16-3.068,1.16-4.193,0.037c-1.122-1.159-1.197-3.033,0-4.193C405.641,170.08,413.201,173.525,413.201,173.525z     M428.179,179.027c-1.572,0.6-3.221-0.112-3.894-1.646c-0.6-1.497,0.146-3.219,1.646-3.855c0,0,7.561-3.445,11.678,0.673    c1.125,1.16,1.125,3.034,0,4.193c-1.121,1.123-3.068,1.123-4.192-0.037C432.296,177.232,428.179,179.027,428.179,179.027z     M430.5,160.721v0.075C430.572,161.058,430.572,160.946,430.5,160.721z M395.232,160.346c-0.751-1.422-0.225-3.219,1.271-3.968    c1.425-0.748,3.221-0.149,3.97,1.31c0.448,0.862,0.974,1.648,1.648,2.284c1.87,2.021,4.564,3.07,7.186,3.294    c2.845,0.263,5.617-0.261,7.712-1.346l0.15-0.076c0.675-0.375,1.273-0.749,1.724-1.197l0.148-0.151    c6.515-6.103,9.284-6.851,11.007-5.053c1.122,1.161,1.05,2.32,0.823,3.63c2.022-0.71,4.72-1.459,7.265-1.572    c3.145-0.149,5.913,0.637,7.413,3.146c-1.05-5.093-3.595-9.623-7.114-13.143c-4.867-4.829-11.529-7.823-18.87-7.823    c-7.337,0-14.001,2.994-18.792,7.823c-4.792,4.792-7.788,11.457-7.788,18.794c0,8.273,3.22,20.18,9.284,28.977    c4.345,6.366,10.258,10.97,17.296,10.97c7.113,0,12.954-4.604,17.371-10.97c6.067-8.797,9.212-20.703,9.212-28.977    c0-0.523,0-1.048,0-1.61c-0.375,0.712-1.05,1.236-1.799,1.459c-1.572,0.45-3.221-0.487-3.668-2.059    c-0.15-0.598-1.125-0.748-2.321-0.673c-2.022,0.075-4.492,0.861-6.216,1.459c-4.342,1.61-6.363,0.338-7.187-2.021l-0.151-0.487    c-0.375,0.749-0.821,1.572-1.72,2.396l-0.075,0.15c-0.897,0.824-1.947,1.571-3.072,2.172l-0.146,0.074    c-3.072,1.572-7.039,2.358-11.009,2.022c-3.969-0.374-8.011-1.984-11.007-5.13C396.805,163.005,395.905,161.77,395.232,160.346z     M105.313,224.853c-1.647,0-2.996-1.348-2.996-2.996c0-1.61,1.349-2.957,2.996-2.957h91.272c1.571,0,2.92,1.347,2.92,2.957    c0,1.648-1.349,2.996-2.92,2.996H105.313z M105.313,211.786c-1.647,0-2.996-1.348-2.996-2.958c0-1.648,1.349-2.957,2.996-2.957    h91.272c1.571,0,2.92,1.309,2.92,2.957c0,1.61-1.349,2.958-2.92,2.958H105.313z M85.844,207.556H70.269v15.574h15.575V207.556z     M67.276,201.603h21.489c1.647,0,2.995,1.349,2.995,2.996v21.488c0,1.648-1.348,2.995-2.995,2.995H67.276    c-1.647,0-2.92-1.346-2.92-2.995v-21.488C64.355,202.952,65.628,201.603,67.276,201.603z M105.313,184.12    c-1.647,0-2.996-1.311-2.996-2.959c0-1.647,1.349-2.958,2.996-2.958h91.272c1.571,0,2.92,1.311,2.92,2.958    c0,1.648-1.349,2.959-2.92,2.959H105.313z M105.313,171.054c-1.647,0-2.996-1.311-2.996-2.958c0-1.646,1.349-2.957,2.996-2.957    h91.272c1.571,0,2.92,1.311,2.92,2.957c0,1.647-1.349,2.958-2.92,2.958H105.313z M85.844,166.823H70.269v15.611h15.575V166.823z     M67.276,160.909h21.489c1.647,0,2.995,1.348,2.995,2.958v21.527c0,1.647-1.348,2.957-2.995,2.957H67.276    c-1.647,0-2.92-1.31-2.92-2.957v-21.527C64.355,162.256,65.628,160.909,67.276,160.909z M105.313,143.387    c-1.647,0-2.996-1.31-2.996-2.958c0-1.61,1.349-2.956,2.996-2.956h91.272c1.571,0,2.92,1.346,2.92,2.956    c0,1.648-1.349,2.958-2.92,2.958H105.313z M105.313,130.359c-1.647,0-2.996-1.349-2.996-2.958c0-1.647,1.349-2.994,2.996-2.994    h91.272c1.571,0,2.92,1.347,2.92,2.994c0,1.61-1.349,2.958-2.92,2.958H105.313z M85.844,126.128H70.269v15.574h15.575V126.128z     M67.276,120.213h21.489c1.647,0,2.995,1.311,2.995,2.92v21.526c0,1.647-1.348,2.958-2.995,2.958H67.276    c-1.647,0-2.92-1.311-2.92-2.958v-21.526C64.355,121.524,65.628,120.213,67.276,120.213z M278.574,128.6    c-1.645,0-2.921-1.349-2.921-2.958c0-1.647,1.276-2.958,2.921-2.958h48.295c1.574,0,2.92,1.311,2.92,2.958    c0,1.61-1.346,2.958-2.92,2.958H278.574z M278.574,118.08c-1.645,0-2.921-1.349-2.921-2.959c0-1.646,1.276-2.957,2.921-2.957    h48.295c1.574,0,2.92,1.311,2.92,2.957c0,1.61-1.346,2.959-2.92,2.959H278.574z M266.596,159.859l7.936,31.973    c0.451,1.498-0.374,3.107-1.87,3.593l-31.451,10.222c-1.572,0.487-3.219-0.412-3.667-1.947c-0.224-0.748-0.523-1.684-0.674-2.433    c-2.397-9.622-0.674-19.28,4.042-27.18c4.72-7.862,12.431-13.926,22.015-16.324l0.076-0.036    C264.648,157.314,266.221,158.287,266.596,159.859z M268.168,190.633l-6.516-26.317c-6.738,2.396-12.204,7.038-15.647,12.803    c-3.821,6.366-5.318,14.152-3.595,21.939L268.168,190.633z M245.104,209.428l35.417-9.472l-9.433-35.267    c-0.076-0.299-0.151-0.6-0.151-0.898c0-1.46,1.049-2.695,2.396-2.92c11.307-2.957,22.687-1.123,32.121,4.305    c9.36,5.431,16.698,14.415,19.77,25.646l0.148,0.413c2.92,11.269,1.049,22.724-4.342,32.083    c-5.467,9.435-14.525,16.81-25.834,19.842c-11.382,3.033-22.912,1.199-32.348-4.268c-9.431-5.429-16.772-14.488-19.84-25.832    C242.635,211.487,243.532,209.84,245.104,209.428z M284.939,204.898l-35.343,9.434c3.071,8.459,8.913,15.236,16.249,19.468    c8.088,4.68,18.046,6.251,27.781,3.632c9.807-2.621,17.594-8.949,22.311-17.072c4.644-8.125,6.216-18.046,3.594-27.817v-0.037    c-2.621-9.773-8.984-17.522-16.996-22.2c-7.338-4.232-16.174-5.953-25.008-4.343l9.508,35.303    C287.41,202.838,286.512,204.485,284.939,204.898z M46.833,282.619h299.504c1.724,0,3.296-0.712,4.417-1.836    c1.124-1.16,1.871-2.732,1.871-4.492c0-1.721-0.747-3.293-1.871-4.454c-1.121-1.161-2.693-1.835-4.417-1.835h-1.197H47.958h-1.125    c-1.72,0-3.292,0.674-4.492,1.835c-1.122,1.161-1.872,2.733-1.872,4.454c0,1.76,0.75,3.332,1.872,4.455    C43.541,281.907,45.113,282.619,46.833,282.619z M342.069,101.083H51.027V264.05h291.042V101.083z M46.833,95.131h1.125h297.183    h1.197c1.724,0,3.296-0.712,4.417-1.836c1.124-1.161,1.871-2.732,1.871-4.454c0-1.76-0.747-3.333-1.871-4.492    c-1.121-1.124-2.693-1.836-4.417-1.836H46.833c-1.72,0-3.292,0.712-4.492,1.836c-1.122,1.159-1.872,2.732-1.872,4.492    c0,1.722,0.75,3.293,1.872,4.454C43.541,94.418,45.113,95.131,46.833,95.131z M87.117,404.591l2.47-2.396l-9.583-13.028    l-0.823,0.824L87.117,404.591z M97.375,402.12l1.872,1.724l8.461-13.929l-0.821-0.748L97.375,402.12z M93.856,331.4    c-5.243,0-9.958,2.133-13.402,5.578c-3.371,3.407-5.541,8.161-5.541,13.365c0,6.028,2.322,14.714,6.738,21.115    c3.144,4.492,7.265,7.75,12.205,7.75c4.942,0,9.136-3.258,12.204-7.75c4.42-6.401,6.738-15.087,6.738-21.115    c0-5.204-2.095-9.958-5.538-13.365C103.813,333.533,99.098,331.4,93.856,331.4z M119.84,411.892c0-1.723,1.345-3.107,3.069-3.107    c1.723,0,3.143,1.385,3.143,3.107v17.596h8.913v-27.705l-22.239-8.76l-10.26,16.81c-0.072,0.225-0.223,0.45-0.447,0.638    c-1.125,1.197-2.997,1.273-4.117,0.15l-4.344-4.044l-5.016,4.979l-0.076,0.038l0,0v0.036l-0.075,0.038v0.037l0,0l-0.076,0.039    v0.035l0,0l-0.073,0.039l0,0l0,0l-0.076,0.037l0,0l-0.075,0.074h-0.076l0,0l-0.148,0.113l-0.075,0.038l-0.076,0.036l0,0v0.037    h-0.072v0.038h-0.076v0.038l-0.151,0.036l0,0H87.34l0,0h-0.072v0.038h-0.075l0,0v0.038h-0.076l0,0h-0.076l0,0l-0.072,0.037l0,0    l0,0h-0.075l0,0h-0.076l0,0l-0.076,0.036l0,0h-0.072l0,0h-0.075l0,0h-0.076h-0.151l0,0h-0.148l0,0l-0.151-0.036l0,0h-0.073l0,0    H85.92l0,0h-0.076l0,0l-0.075-0.037l0,0l0,0l0,0l-0.072-0.038h-0.076l0,0l-0.076-0.038l0,0l-0.223-0.074l0,0l-0.151-0.038l0,0    v-0.037h-0.076v-0.036h-0.072v-0.038l0,0l-0.076-0.037l-0.075-0.076h-0.076v-0.037l-0.148-0.074l0,0l-0.075-0.039v-0.035l0,0    l-0.076-0.039v-0.037h-0.072v-0.038v-0.036h-0.076v-0.038l0,0l-0.076-0.037v-0.038v-0.038l0,0l-0.075-0.035v-0.039l0,0    l-0.076-0.111l0,0l-0.072-0.037v-0.039l0,0l-0.076-0.037l0,0v-0.074l0,0l-0.075-0.037v-0.039l-0.076-0.111l-0.072-0.111    l-9.659-17.708l-22.166,8.721v27.705h8.988v-17.596c0-1.723,1.345-3.107,3.068-3.107s3.068,1.385,3.068,3.107v17.41h52.791    V411.892z M190.222,404.591l2.47-2.396l-9.583-13.028l-0.823,0.824L190.222,404.591z M200.48,402.12l1.871,1.724l8.462-13.929    l-0.825-0.748L200.48,402.12z M196.96,331.4c-5.242,0-9.957,2.133-13.401,5.578c-3.447,3.407-5.542,8.161-5.542,13.365    c0,6.028,2.323,14.714,6.739,21.115c3.145,4.492,7.262,7.75,12.204,7.75c4.944,0,9.061-3.258,12.205-7.75    c4.417-6.401,6.738-15.087,6.738-21.115c0-5.204-2.095-9.958-5.541-13.365C206.919,333.533,202.203,331.4,196.96,331.4z     M222.942,411.892c0-1.723,1.348-3.107,3.071-3.107c1.721,0,3.069,1.385,3.069,3.107v17.596h8.985v-27.705l-22.239-8.76    l-10.257,16.81c-0.076,0.225-0.224,0.45-0.448,0.638c-1.125,1.197-2.92,1.273-4.121,0.15l-4.341-4.044l-5.019,4.979l-0.072,0.038    l0,0v0.036l-0.075,0.038v0.037l0,0l-0.076,0.039v0.035l0,0l-0.076,0.039l0,0l0,0l-0.072,0.037l0,0l-0.076,0.074h-0.075l0,0    l-0.148,0.113l-0.076,0.038l-0.075,0.036l0,0v0.037h-0.076v0.038h-0.075v0.038l-0.148,0.036l0,0h-0.076l0,0h-0.076v0.038h-0.072    l0,0l-0.075,0.038l0,0h-0.076l0,0l0,0v0.037h-0.076l0,0h-0.072l0,0h-0.075l0,0l-0.076,0.036l0,0h-0.076l0,0h-0.075l0,0h-0.072    h-0.152l0,0h-0.147l0,0l-0.152-0.036l0,0h-0.075l0,0h-0.072l0,0h-0.076l0,0l-0.076-0.037l0,0h-0.075l0,0v-0.038h-0.072l0,0    l-0.076-0.038l0,0l-0.227-0.074l0,0l-0.148-0.038l0,0v-0.037H188.2v-0.036h-0.076v-0.038h-0.072v-0.037l-0.076-0.076H187.9v-0.037    l-0.148-0.074l0,0l-0.076-0.039v-0.035l0,0l-0.075-0.039v-0.037h-0.076v-0.038v-0.036h-0.076v-0.038l0,0l-0.072-0.037v-0.038l0,0    l-0.075-0.038v-0.035v-0.039l0,0l-0.076-0.111l0,0l-0.148-0.188l0,0l-0.075-0.037l-0.076-0.15l-0.076-0.111l-9.659-17.708    l-22.163,8.721v27.705h8.985v-17.596c0-1.723,1.349-3.107,3.072-3.107c1.719,0,3.068,1.385,3.068,3.107v17.41h52.788V411.892z     M293.326,404.591l2.471-2.396l-9.584-13.028l-0.9,0.824L293.326,404.591z M303.584,402.12l1.871,1.724l8.463-13.929l-0.826-0.748    L303.584,402.12z M300.065,331.4c-5.241,0-9.958,2.133-13.405,5.578c-3.443,3.407-5.538,8.161-5.538,13.365    c0,6.028,2.319,14.714,6.739,21.115c3.144,4.492,7.262,7.75,12.204,7.75c4.94,0,9.061-3.258,12.204-7.75    c4.418-6.401,6.739-15.087,6.739-21.115c0-5.204-2.099-9.958-5.541-13.365C310.023,333.533,305.305,331.4,300.065,331.4z     M326.047,411.892c0-1.723,1.424-3.107,3.068-3.107c1.724,0,3.071,1.385,3.071,3.107v17.596h8.985v-27.705l-22.239-8.76    l-10.257,16.81c-0.076,0.225-0.225,0.45-0.451,0.638c-1.121,1.197-2.92,1.273-4.193,0.15l-4.341-4.044l-4.942,4.979l-0.076,0.038    l0,0v0.036l-0.072,0.038v0.037l0,0l-0.075,0.039v0.035l0,0l-0.076,0.039l0,0l0,0l-0.075,0.037l0,0l-0.072,0.074l0,0h-0.076    l-0.151,0.113l-0.072,0.038l-0.075,0.036l0,0v0.037h-0.076v0.038h-0.076v0.038l-0.146,0.036l0,0h-0.076l0,0h-0.076v0.038h-0.075    l0,0l-0.073,0.038l0,0h-0.074l0,0l0,0l-0.076,0.037l0,0l0,0h-0.075l0,0h-0.073l0,0l-0.075,0.036l0,0h-0.076l0,0h-0.075l0,0h-0.076    h-0.147l0,0h-0.151l0,0l-0.148-0.036l0,0h-0.076l0,0h-0.074l0,0h-0.072l0,0v-0.037h-0.076l0,0h-0.076v-0.038h-0.074h-0.076v-0.038    l0,0l-0.224-0.074l0,0l-0.148-0.038l0,0v-0.037h-0.075v-0.036h-0.076v-0.038l0,0l-0.076-0.037l-0.147-0.076l0,0v-0.037    l-0.151-0.074l0,0l-0.072-0.039v-0.035l0,0l-0.076-0.039v-0.037h-0.074v-0.038v-0.036h-0.076v-0.038l0,0l-0.076-0.037v-0.038    v-0.038h-0.072v-0.035v-0.039l0,0l-0.075-0.111h-0.075v-0.037v-0.039l0,0v-0.037h-0.076v-0.074l0,0v-0.037l-0.072-0.039    l-0.076-0.111v-0.111l-9.734-17.708l-22.162,8.721v27.705h8.984v-17.596c0-1.723,1.349-3.107,3.068-3.107    c1.723,0,3.072,1.385,3.072,3.107v17.41h52.787V411.892z" style="fill-rule:evenodd;clip-rule:evenodd;"/></g></g><g id="Layer_1"/></svg>