<?xml version="1.0" ?><!DOCTYPE svg  PUBLIC '-//W3C//DTD SVG 1.1//EN'  'http://www.w3.org/Graphics/SVG/1.1/DTD/svg11.dtd'><svg viewBox="0 0 512 512" style="enable-background:new 0 0 512 512;" version="1.1" xml:space="preserve" xmlns="http://www.w3.org/2000/svg" xmlns:xlink="http://www.w3.org/1999/xlink"><g id="B_-_173_x2C__handshake_x2C__Agreement_x2C__business_x2C__hands_x2C__partners_x2C__partnership"><g><path d="M137.944,296.174c-0.792,0.758-1.947,1.082-2.957,0.722l-20.837,11.968    c-4.687,2.813-6.271,7.139-5.692,11.213c0.213,1.656,0.792,3.243,1.657,4.722l0.072,0.145c0.865,1.405,1.874,2.632,3.17,3.641    c3.318,2.561,7.86,3.39,12.761,0.613l17.088-9.915c1.372-0.792,3.102-0.324,3.894,1.045c0.792,1.335,0.287,3.066-1.009,3.858    c-4.614,2.885-6.131,7.212-5.552,11.247c0.218,1.658,0.793,3.316,1.73,4.759c0.865,1.479,2.019,2.776,3.387,3.821    c3.246,2.416,7.715,3.136,12.474,0.396c4.758-2.559,9.659-5.91,14.345-8.255c1.372-0.792,3.174-0.323,3.966,1.048    c0.72,1.332,0.29,3.026-1.009,3.819c-4.687,2.848-6.199,7.209-5.624,11.247c0.289,1.658,0.865,3.281,1.729,4.759    c0.865,1.479,2.019,2.776,3.391,3.785c3.243,2.452,7.784,3.173,12.543,0.434c6.058-3.28,12.33-7.57,18.384-10.6    c1.372-0.792,3.101-0.323,3.894,1.047c0.792,1.333,0.29,3.027-1.009,3.82c-4.614,2.848-6.199,7.209-5.551,11.212    c0.217,1.693,0.792,3.352,1.729,4.794c0.793,1.479,2.02,2.776,3.318,3.786l0.145,0.106c3.243,2.345,7.713,3.065,12.399,0.362    l18.098-10.456l-90.555-52.308c-0.431-0.252-0.792-0.611-1.007-1.008L137.944,296.174z M371.533,290.839l-117.299-70.403    c-10.528,0-20.476-0.542-29.487-2.561l-0.145-0.035c-9.518-2.164-17.954-5.985-24.873-12.51c-2.381-2.2-4.111-4.543-5.262-6.92    l-53.208,92.176l10.528,17.881l92.643,53.495c3.316,1.876,7.064,2.273,10.452,1.336c3.463-0.901,6.488-3.1,8.436-6.382    c1.802-3.208,2.237-6.886,1.371-10.236v-0.073c-0.865-3.39-2.956-6.452-6.13-8.362c-1.296-0.795-1.73-2.524-1.01-3.858    c0.796-1.369,2.525-1.838,3.894-1.045c6.851,3.966,14.06,8.398,20.979,12.112c3.246,1.874,7.067,2.271,10.454,1.333    c7.282-1.946,11.609-9.264,9.808-16.617v-0.073c-0.865-3.388-3.029-6.454-6.203-8.364c-1.295-0.827-1.729-2.522-0.937-3.856    c0.792-1.369,2.525-1.838,3.894-1.045c5.334,3.101,10.958,6.562,16.365,9.445c3.245,1.874,7.066,2.271,10.455,1.333    c7.28-1.947,11.608-9.265,9.804-16.582v-0.108c-0.866-3.352-3.026-6.417-6.2-8.364c-1.296-0.793-1.729-2.524-0.938-3.856    c0.793-1.371,2.523-1.84,3.895-1.045l19.465,11.283c3.244,1.838,6.993,2.235,10.456,1.298c6.055-1.587,10.237-6.959,10.237-13.158    C372.977,294.913,372.471,292.75,371.533,290.839z M318.4,187.27l46.789,81.146l10.957,18.964l4.257,7.389l45.778-26.387    c-21.558-37.277-43.039-74.514-64.598-111.754l-45.709,26.389l0.145,0.253l0.792,1.333l0.794,1.336L318.4,187.27z     M371.244,161.928l52.847,91.457l47.439-27.434l-52.774-91.457L371.244,161.928z M350.338,253.996l-38.861-67.266l-5.406,1.622    c-1.01,0.289-2.019,0-2.738-0.65c-17.955-16.256-29.344-11.571-39.942-7.173c-6.851,2.812-13.339,5.48-21.196,3.749    c-17.157-3.785-28.911-3.459-36.047-0.866c-1.875,0.687-3.46,1.552-4.614,2.489l0,0l0,0l-0.073,0.071v0.037h-0.072v0.035h-0.072    v0.037l-0.145,0.108l0,0v0.037l-0.145,0.108v0.036h-0.069v0.037l0,0l-0.072,0.035v0.037l0,0l-0.072,0.035v0.037v0.037    l-0.146,0.145l0,0l-0.072,0.071l0,0l-0.072,0.037v0.037l0,0l-0.072,0.035v0.037l0,0l-0.072,0.035v0.037l-0.072,0.037v0.037l0,0    l-0.073,0.035v0.037l0,0v0.036l-0.072,0.035v0.037l0,0l-0.072,0.037v0.037v0.035l-0.069,0.037l0,0v0.037l-0.072,0.035l0,0v0.037    v0.037l0,0l-0.072,0.035v0.037v0.037l0,0l-0.072,0.035v0.037l0,0l-0.072,0.037v0.035l0,0v0.037l-0.072,0.037l0,0v0.037v0.035l0,0    l-0.072,0.037v0.036l0,0v0.035l-0.072,0.037l0,0v0.037v0.035l0,0l-0.072,0.037v0.037l0,0v0.071l0,0v0.037l-0.145,0.179v0.037    v0.073h-0.073v0.035v0.072l-0.069,0.037l0,0v0.037v0.037l0,0v0.035l-0.072,0.037v0.037V189l0,0v0.037v0.037l-0.072,0.037l0,0    v0.035l0,0v0.037l-0.072,0.108v0.037v0.035v0.037l0,0v0.037l-0.072,0.035l0,0v0.037v0.037l0,0v0.037l-0.072,0.072v0.035v0.037    v0.037v0.037l0,0l-0.073,0.324v0.037l-0.072,0.289l0,0v0.035l-0.072,0.216l0,0v0.037v0.037l0,0v0.035v0.037l0,0    c-0.072,0.685-0.072,1.371,0.072,2.092c0.362,2.667,2.091,5.551,4.976,8.255c6.127,5.732,13.698,9.157,22.206,11.102l0.145,0.037    c8.722,1.984,18.526,2.453,29.053,2.416c0.506,0,1.009,0.143,1.444,0.396l109.294,65.574L350.338,253.996z M393.521,270.256    c-3.025,0-6.055-1.155-8.436-3.388l-0.213-0.182c-2.381-2.379-3.533-5.516-3.533-8.651c0-3.029,1.152-6.056,3.387-8.436    l0.146-0.181c2.449-2.379,5.551-3.567,8.648-3.567c3.102,0,6.275,1.188,8.652,3.567c2.378,2.379,3.533,5.516,3.533,8.617    c0,3.027-1.083,6.091-3.389,8.436l-0.145,0.216C399.797,269.029,396.623,270.256,393.521,270.256z M389.053,262.758    c1.227,1.189,2.884,1.766,4.469,1.766c1.661,0,3.318-0.613,4.614-1.874l0.145-0.145c1.153-1.261,1.729-2.848,1.729-4.47    c0-1.658-0.648-3.318-1.874-4.579c-1.296-1.261-2.953-1.911-4.614-1.911c-1.657,0-3.315,0.65-4.613,1.876l-0.143,0.143    c-1.154,1.226-1.732,2.848-1.732,4.471c0,1.658,0.65,3.316,1.875,4.614L389.053,262.758z M87.981,253.385l52.775-91.457    l-47.513-27.434L40.47,225.951L87.981,253.385z M122.01,268.777c-3.028,0-6.057-1.117-8.435-3.388l-0.218-0.182    c-2.377-2.379-3.532-5.515-3.532-8.615c0-3.029,1.082-6.093,3.387-8.436l0.145-0.216c2.453-2.343,5.552-3.569,8.652-3.569    c3.102,0,6.272,1.227,8.653,3.569c2.378,2.414,3.604,5.551,3.604,8.651c0,3.029-1.154,6.057-3.463,8.436l-0.142,0.18    C128.21,267.588,125.111,268.777,122.01,268.777z M117.541,261.315c1.223,1.189,2.884,1.766,4.469,1.766    c1.658,0,3.315-0.647,4.614-1.874l0.072-0.145c1.227-1.225,1.803-2.883,1.803-4.47c0-1.658-0.648-3.316-1.875-4.614    c-1.299-1.263-2.956-1.876-4.614-1.876c-1.657,0-3.318,0.613-4.614,1.876l-0.145,0.143c-1.154,1.227-1.729,2.848-1.729,4.471    c0,1.658,0.648,3.316,1.874,4.578L117.541,261.315z M314.289,164.523c1.154,1.082,1.228,2.884,0.145,4.074    c-1.009,1.153-2.811,1.224-4.038,0.179c-17.878-16.258-29.27-11.571-39.942-7.173c-6.774,2.775-13.335,5.478-21.195,3.749    c-10.311-2.308-18.67-3.064-25.376-2.777c-7.139,0.324-12.112,1.948-15.069,4.254c-1.226,0.937-3.029,0.721-3.966-0.54    c-1.009-1.226-0.72-3.027,0.506-3.964c3.821-2.993,9.876-5.048,18.312-5.445c7.065-0.324,16.007,0.505,26.82,2.921    c6.127,1.334,11.896-1.01,17.809-3.498C280.551,151.292,293.741,145.886,314.289,164.523z M135.418,289.289L135.418,289.289    l0.072-0.035v-0.036v-0.037l0.072-0.071v-0.036v-0.035l57.461-99.46c0.289-1.803,0.937-3.534,2.091-5.119    c0.289-0.36,0.576-0.721,0.865-1.082v-0.037l0.072-0.035c0.146-0.218,0.359-0.434,0.576-0.65l0,0l0.072-0.037v-0.071h0.072v-0.037    l0.073-0.071l0,0l0.072-0.037l0.072-0.071l0,0v-0.037l0.072-0.072l0,0l0.072-0.037l0.145-0.071v-0.073l0.069-0.035v-0.037    l0.072-0.037l0,0l1.948-3.424l-45.708-26.387L89.133,263.91l45.71,26.389L135.418,289.289z" style="fill-rule:evenodd;clip-rule:evenodd;"/></g></g><g id="Layer_1"/></svg>