<?xml version="1.0" ?><!DOCTYPE svg  PUBLIC '-//W3C//DTD SVG 1.1//EN'  'http://www.w3.org/Graphics/SVG/1.1/DTD/svg11.dtd'><svg width="512px" height="512px" viewBox="0 0 512 512" style="enable-background:new 0 0 512 512;" version="1.1" xml:space="preserve" xmlns="http://www.w3.org/2000/svg" xmlns:xlink="http://www.w3.org/1999/xlink"><g id="A_-_116_x2C__presentation_x2C__office_x2C__university_x2C__professor_x2C_"><g><path d="M404.25,242.185c-0.436,0.754-1.152,1.304-1.994,1.528l-35.688,9.519c5.279,14.525,19.172,24.412,34.851,24.413    c0.001,0,0.001,0,0.003,0c3.23,0,6.471-0.426,9.629-1.268c9.569-2.56,17.573-8.716,22.533-17.333    c4.949-8.597,6.248-18.583,3.662-28.118c-4.323-16.232-19.059-27.559-35.838-27.559c-2.146,0-4.295,0.188-6.419,0.56l9.589,35.768    C404.803,240.536,404.686,241.432,404.25,242.185z"/><path d="M319.266,100.696c0-4.013-3.229-7.278-7.199-7.278c-3.967,0-7.195,3.265-7.195,7.278v11.613h14.395V100.696z"/><path d="M112.258,186.921c16.917,0,30.68-13.763,30.68-30.68c0-1.595-0.124-3.161-0.361-4.691    c-1.532,0.159-3.055,0.249-4.554,0.249c-8.305,0-16.127-2.202-22.313-6.226c-5.766,3.463-13.167,5.518-21.339,5.518    c-4.166,0-8.174-0.532-11.963-1.574c-0.487,2.165-0.753,4.413-0.753,6.723C81.656,173.159,95.384,186.921,112.258,186.921z"/><rect height="18.651" width="5.494" x="215.366" y="246.427"/><rect height="54.58" width="5.418" x="294.23" y="210.499"/><path d="M153.73,389.173v-63.69v-9.88H69.603v73.57h38.823v-43.205c0-1.812,1.468-3.28,3.28-3.28s3.28,1.469,3.28,3.28v43.205    H153.73z"/><rect height="29.367" width="5.494" x="235.059" y="235.711"/><polygon points="93.792,209.871 92.606,222.849 104.849,222.849 107.286,222.849   "/><polygon points="115.524,245.166 107.733,245.166 101.645,292.421 120.363,292.421   "/><path d="M63.043,239.126c0-1.811,1.468-3.28,3.28-3.28s3.28,1.469,3.28,3.28v69.917h84.128v-69.917c0-1.811,1.469-3.28,3.28-3.28    s3.28,1.469,3.28,3.28v69.917h16.523v-2.234v-84.114l-17.454-6.829c-0.168-0.066-0.328-0.146-0.479-0.237l-22.28-8.771    l0.995,19.101c0.047,0.898-0.277,1.776-0.896,2.429c-0.62,0.652-1.479,1.021-2.379,1.021h-12.555v12.309l5.494,53.649    c0.094,0.924-0.207,1.843-0.829,2.532c-0.622,0.688-1.506,1.082-2.435,1.082H97.915c-0.943,0-1.84-0.406-2.463-1.114    c-0.623-0.708-0.911-1.649-0.79-2.585l6.907-53.605v-12.268H89.014c-0.921,0-1.801-0.388-2.422-1.068    c-0.622-0.681-0.928-1.593-0.844-2.51l1.76-19.277L46.52,222.689v86.354h16.523V239.126z"/><polygon points="130.141,208.961 114.656,222.849 118.485,222.849 130.864,222.849   "/><rect height="46.939" width="5.417" x="274.53" y="218.139"/><rect height="39.61" width="5.494" x="254.76" y="225.468"/><rect height="9.198" width="7.076" x="108.129" y="229.408"/><path d="M121.394,127.027c-2.887-0.9-5.955-1.386-9.135-1.386c-12.25,0-22.837,7.238-27.722,17.659    c3.109,0.817,6.404,1.232,9.836,1.232C108.89,144.532,120.77,136.751,121.394,127.027z"/><polygon points="327.008,371.053 349.8,371.053 327.008,336.328   "/><polygon points="330.042,328.996 382.934,409.577 398.414,409.577 345.592,328.996   "/><polygon points="278.857,328.996 226.036,409.577 241.516,409.577 294.406,328.996   "/><rect height="80.581" width="16.762" x="303.686" y="328.996"/><path d="M159.293,131.219h1.261h302.941h1.346c3.404,0,6.173-2.77,6.173-6.174c0-3.405-2.769-6.175-6.173-6.175H322.545H301.59    H159.293c-3.405,0-6.175,2.77-6.175,6.175C153.119,128.449,155.889,131.219,159.293,131.219z"/><path d="M464.842,310.088h-1.346H183.373v2.234c0,1.813-1.468,3.28-3.28,3.28h-19.803v6.834h116.794h23.321h0.077h23.244h0.237    h23.398h117.479c3.404,0,6.173-2.769,6.173-6.174S468.246,310.088,464.842,310.088z"/><polygon points="297.127,371.053 297.127,336.808 274.648,371.053   "/><path d="M460.216,303.528v-165.75H163.834v72.751l17.461,6.874c0.104,0.041,0.2,0.094,0.297,0.145    c0.049,0.025,0.102,0.044,0.149,0.071c0.083,0.049,0.158,0.107,0.235,0.162c0.056,0.04,0.117,0.074,0.17,0.116    c0.064,0.052,0.12,0.113,0.181,0.168c0.058,0.055,0.121,0.105,0.175,0.164c0.048,0.052,0.087,0.11,0.132,0.165    c0.057,0.071,0.119,0.139,0.17,0.214c0.033,0.049,0.058,0.103,0.088,0.153c0.053,0.087,0.109,0.173,0.154,0.266    c0.025,0.052,0.042,0.108,0.063,0.162c0.041,0.096,0.084,0.19,0.115,0.29c0.015,0.046,0.021,0.096,0.033,0.143    c0.029,0.112,0.06,0.222,0.077,0.336c0.025,0.163,0.038,0.33,0.038,0.498v83.073H460.216z M311.199,280.226H203.892    c-1.812,0-3.28-1.469-3.28-3.28s1.469-3.279,3.28-3.279h107.308c1.813,0,3.28,1.468,3.28,3.279S313.012,280.226,311.199,280.226z     M268.207,196.234c-1.829,0.075-3.328-1.361-3.385-3.172c-0.059-1.81,1.361-3.325,3.172-3.384l9.768-0.316    c0.085-0.004,0.167,0.013,0.252,0.016c0.102,0.004,0.205,0.005,0.307,0.019c0.132,0.019,0.258,0.05,0.385,0.084    c0.082,0.021,0.162,0.04,0.243,0.068c0.121,0.042,0.234,0.095,0.348,0.151c0.087,0.042,0.173,0.083,0.255,0.133    c0.102,0.063,0.197,0.133,0.293,0.206c0.055,0.041,0.115,0.071,0.168,0.117c0.029,0.026,0.051,0.058,0.078,0.085    c0.031,0.027,0.068,0.048,0.098,0.078c0.049,0.05,0.084,0.109,0.132,0.162c0.077,0.088,0.151,0.175,0.218,0.269    c0.059,0.082,0.107,0.166,0.157,0.252c0.063,0.104,0.119,0.21,0.167,0.319c0.038,0.088,0.07,0.178,0.102,0.269    c0.039,0.115,0.072,0.228,0.098,0.345c0.021,0.095,0.037,0.19,0.049,0.288c0.018,0.119,0.024,0.237,0.026,0.357    c0.001,0.053,0.015,0.105,0.013,0.159l-0.314,10.243c-0.055,1.776-1.512,3.179-3.278,3.179c-0.033,0-0.067,0-0.103-0.001    c-1.811-0.056-3.232-1.568-3.178-3.379l0.057-1.816c-22.159,20.445-59.336,34.006-61.057,34.626    c-0.368,0.133-0.743,0.195-1.112,0.195c-1.344,0-2.604-0.832-3.085-2.168c-0.615-1.704,0.269-3.583,1.972-4.198    c0.408-0.147,37.552-13.703,58.789-33.241L268.207,196.234z M283.228,211.58c1.812,0,3.28,1.469,3.28,3.28v53.499    c0,1.812-1.469,3.279-3.28,3.279H271.25c-1.811,0-3.279-1.468-3.279-3.279v-53.499c0-1.811,1.469-3.28,3.279-3.28H283.228z     M266.813,222.188v46.17c0,1.812-1.47,3.279-3.28,3.279H251.48c-1.812,0-3.28-1.468-3.28-3.279v-46.17    c0-1.812,1.468-3.28,3.28-3.28h12.053C265.344,218.909,266.813,220.376,266.813,222.188z M247.112,232.432v35.927    c0,1.812-1.468,3.279-3.28,3.279h-12.053c-1.812,0-3.28-1.468-3.28-3.279v-35.927c0-1.812,1.468-3.28,3.28-3.28h12.053    C245.644,229.152,247.112,230.62,247.112,232.432z M212.086,239.867h12.053c1.812,0,3.28,1.468,3.28,3.28v25.211    c0,1.812-1.468,3.279-3.28,3.279h-12.053c-1.812,0-3.28-1.468-3.28-3.279v-25.211    C208.806,241.335,210.274,239.867,212.086,239.867z M287.672,268.358v-61.14c0-1.811,1.467-3.28,3.279-3.28h11.978    c1.81,0,3.28,1.469,3.28,3.28v61.14c0,1.812-1.471,3.279-3.28,3.279h-11.978C289.139,271.638,287.672,270.17,287.672,268.358z     M395.738,148.549h49.248c1.811,0,3.279,1.468,3.279,3.28c0,1.811-1.469,3.28-3.279,3.28h-49.248c-1.813,0-3.28-1.469-3.28-3.28    C392.458,150.017,393.926,148.549,395.738,148.549z M395.738,159.345h49.248c1.811,0,3.279,1.469,3.279,3.28    c0,1.812-1.469,3.28-3.279,3.28h-49.248c-1.813,0-3.28-1.468-3.28-3.28C392.458,160.813,393.926,159.345,395.738,159.345z     M388.094,199.824c0.436-0.754,1.154-1.303,1.996-1.527c3.707-0.987,7.517-1.489,11.318-1.489c19.748,0,37.09,13.33,42.172,32.416    c3.045,11.216,1.514,22.974-4.312,33.093c-5.835,10.14-15.257,17.384-26.526,20.399c-3.713,0.988-7.52,1.488-11.32,1.488    c-0.002,0-0.002,0-0.003,0c-19.749-0.002-37.091-13.331-42.173-32.415c-0.467-1.75,0.574-3.547,2.324-4.014l35.822-9.554    l-9.627-35.907C387.54,201.474,387.656,200.578,388.094,199.824z M357.031,211.933c5.084-8.493,13.176-14.487,22.787-16.878    c0.844-0.21,1.736-0.077,2.483,0.373c0.745,0.449,1.281,1.175,1.491,2.02l8.117,32.695c0.414,1.67-0.532,3.377-2.168,3.909    l-31.984,10.401c-0.332,0.107-0.674,0.16-1.016,0.16c-0.523,0-1.045-0.125-1.52-0.373c-0.781-0.409-1.365-1.116-1.619-1.959    l-0.133-0.428c-0.199-0.646-0.404-1.313-0.56-2.08C350.521,230.251,351.983,220.368,357.031,211.933z M183.117,181.138v-23.793    c0-1.812,1.469-3.28,3.28-3.28h124.962c1.811,0,3.279,1.468,3.279,3.28v23.793c0,1.812-1.469,3.28-3.279,3.28H186.397    C184.586,184.417,183.117,182.95,183.117,181.138z"/><rect height="17.234" width="118.401" x="189.677" y="160.624"/><path d="M384.807,228.758l-6.548-26.377c-6.521,2.379-11.985,6.882-15.598,12.921c-3.966,6.625-5.24,14.337-3.63,21.837    L384.807,228.758z"/><path d="M138.024,145.24c0.925,0,1.865-0.044,2.81-0.115c-2.541-6.473-7.227-11.876-13.186-15.338    c-0.8,4.296-3.024,8.208-6.33,11.473C126.1,143.833,131.875,145.24,138.024,145.24z"/><path d="M50.917,404.979c0,1.811,1.468,3.279,3.28,3.279h114.947c1.812,0,3.28-1.469,3.28-3.279c0-1.812-1.469-3.28-3.28-3.28    H54.197C52.386,401.698,50.917,403.167,50.917,404.979z"/><path d="M179.075,412.021H44.266c-1.812,0-3.28,1.469-3.28,3.28s1.468,3.28,3.28,3.28h134.81c1.812,0,3.28-1.469,3.28-3.28    S180.887,412.021,179.075,412.021z"/></g></g><g id="Layer_1"/></svg>