<?xml version="1.0" ?><!DOCTYPE svg  PUBLIC '-//W3C//DTD SVG 1.1//EN'  'http://www.w3.org/Graphics/SVG/1.1/DTD/svg11.dtd'><svg width="512px" height="512px" viewBox="0 0 512 512" style="enable-background:new 0 0 512 512;" version="1.1" xml:space="preserve" xmlns="http://www.w3.org/2000/svg" xmlns:xlink="http://www.w3.org/1999/xlink"><g id="_x39_92_x2C__setting_x2C__gear"><g id="XMLID_617_"><path d="M256,254.894c-0.374,0-0.631,0.178-0.78,0.328c-0.148,0.148-0.327,0.405-0.327,0.779    c0,0.374,0.179,0.63,0.329,0.78c0.147,0.147,0.404,0.325,0.778,0.325c0.373,0,0.63-0.178,0.78-0.328    c0.147-0.147,0.326-0.404,0.326-0.777c0-0.374-0.178-0.631-0.328-0.781C256.63,255.072,256.373,254.894,256,254.894z" id="XMLID_618_"/><path d="M256,217.615c-10.222,0-19.853,4.001-27.117,11.267c-7.267,7.266-11.268,16.896-11.268,27.118    c0,10.221,4.001,19.852,11.268,27.118c7.265,7.266,16.896,11.267,27.117,11.267c10.221,0,19.852-4.002,27.118-11.268    c7.265-7.266,11.266-16.896,11.266-27.117c0-10.221-4.001-19.852-11.267-27.118C275.852,221.617,266.222,217.615,256,217.615z     M263.37,263.367c-1.976,1.974-4.591,3.059-7.37,3.059s-5.396-1.085-7.368-3.056c-1.973-1.975-3.058-4.591-3.058-7.37    s1.085-5.396,3.055-7.368c1.974-1.973,4.591-3.058,7.371-3.058c2.779,0,5.396,1.085,7.368,3.056    c1.972,1.974,3.058,4.591,3.058,7.37S265.34,261.396,263.37,263.367z" id="XMLID_619_"/><path d="M256,161.698c-25.116,0-48.778,9.829-66.625,27.677c-17.848,17.847-27.677,41.508-27.677,66.625    c0,25.115,9.829,48.777,27.677,66.625s41.509,27.677,66.625,27.677c25.115,0,48.776-9.829,66.625-27.677    c17.848-17.848,27.677-41.51,27.677-66.625c0-25.117-9.829-48.778-27.677-66.625C304.776,171.527,281.115,161.698,256,161.698z     M289.708,289.707c-9.027,9.026-20.998,13.997-33.708,13.997c-12.71,0-24.682-4.972-33.708-13.997S208.295,268.71,208.295,256    c0-12.711,4.971-24.682,13.997-33.708c9.025-9.026,20.996-13.997,33.708-13.997c12.711,0,24.682,4.971,33.707,13.997    c9.025,9.026,13.997,20.997,13.997,33.708C303.704,268.71,298.733,280.681,289.708,289.707z" id="XMLID_622_"/><path d="M424.033,224.599c-4.159,0-8.203,0.801-12.021,2.38c-2.377,0.985-5.102-0.146-6.086-2.523l-21.605-52.17    c-0.474-1.142-0.474-2.425,0-3.567c0.473-1.142,1.38-2.049,2.521-2.521c3.815-1.58,7.238-3.869,10.174-6.804    c12.229-12.25,12.229-32.185-0.002-44.437c-5.928-5.927-13.814-9.193-22.203-9.193s-16.275,3.266-22.205,9.195    c-2.938,2.943-5.229,6.374-6.808,10.193c-0.473,1.143-1.38,2.051-2.522,2.524c-1.143,0.474-2.426,0.474-3.567,0.001    l-52.185-21.613c-1.143-0.474-2.051-1.382-2.523-2.525s-0.471-2.428,0.005-3.57c1.589-3.819,2.395-7.858,2.395-12.004    c0-17.314-14.085-31.4-31.399-31.4s-31.401,14.086-31.401,31.4c0,4.146,0.806,8.185,2.396,12.003    c0.476,1.142,0.477,2.427,0.004,3.57s-1.38,2.052-2.523,2.526l-52.184,21.613c-1.143,0.472-2.426,0.472-3.568-0.001    s-2.049-1.381-2.521-2.524c-1.58-3.82-3.871-7.25-6.811-10.195c-5.936-5.926-13.827-9.193-22.214-9.193s-16.279,3.267-22.22,9.198    c-12.226,12.247-12.226,32.182,0.006,44.434c2.938,2.934,6.369,5.226,10.191,6.806c1.142,0.473,2.05,1.38,2.523,2.521    c0.474,1.143,0.474,2.426,0.001,3.568l-21.606,52.169c-0.473,1.143-1.38,2.049-2.522,2.522c-1.142,0.473-2.425,0.472-3.567,0    c-3.817-1.582-7.86-2.384-12.017-2.384c-17.314,0-31.4,14.086-31.4,31.401s14.086,31.4,31.4,31.4    c4.156,0,8.199-0.803,12.015-2.386c1.141-0.474,2.424-0.474,3.567-0.002c1.143,0.474,2.05,1.381,2.523,2.523l21.607,52.172    c0.473,1.143,0.473,2.426-0.001,3.567c-0.473,1.143-1.381,2.049-2.523,2.521c-3.82,1.58-7.251,3.871-10.197,6.813    c-12.24,12.24-12.24,32.162,0.003,44.407c5.938,5.928,13.83,9.194,22.217,9.194s16.278-3.267,22.219-9.197    c2.933-2.934,5.223-6.356,6.802-10.172c0.473-1.141,1.379-2.049,2.521-2.521c0.571-0.237,1.177-0.355,1.784-0.355    c0.606,0,1.212,0.118,1.783,0.355l52.17,21.605c2.376,0.984,3.506,3.708,2.523,6.086c-1.58,3.819-2.38,7.864-2.38,12.022    c0,17.313,14.086,31.4,31.401,31.4s31.399-14.087,31.399-31.4c0-4.158-0.802-8.2-2.382-12.019    c-0.984-2.378,0.146-5.103,2.522-6.088l52.172-21.607c2.374-0.987,5.104,0.144,6.088,2.521c1.581,3.816,3.871,7.239,6.806,10.175    c5.93,5.929,13.816,9.194,22.205,9.194s16.275-3.266,22.205-9.194c12.244-12.245,12.244-32.167,0-44.411    c-2.935-2.935-6.357-5.225-10.174-6.805c-2.378-0.985-3.507-3.711-2.521-6.088l21.607-52.173c0.984-2.378,3.71-3.505,6.088-2.522    c3.817,1.581,7.86,2.383,12.018,2.383c17.314,0,31.401-14.086,31.401-31.4S441.348,224.599,424.033,224.599z M329.214,329.215    c-19.607,19.608-45.609,30.406-73.214,30.406c-27.605,0-53.607-10.798-73.215-30.406c-19.608-19.608-30.407-45.61-30.407-73.215    c0-27.606,10.798-53.608,30.407-73.215c19.608-19.608,45.61-30.406,73.215-30.406c27.604,0,53.606,10.798,73.214,30.406    c19.608,19.607,30.407,45.609,30.407,73.215C359.621,283.604,348.822,309.606,329.214,329.215z" id="XMLID_625_"/></g></g><g id="Layer_1"/></svg>